<svg viewBox="-3 0 48 48" xmlns="http://www.w3.org/2000/svg"><path d="M26.727009 9.600905c-.791632 0-1.432477-.62371-1.432477-1.394176 0-.770465.640845-1.391353 1.432477-1.391353s1.432477.620888 1.432477 1.391353c0 .770466-.640845 1.394176-1.432477 1.394176Zm-11.454018 0c-.791632 0-1.432477-.62371-1.432477-1.394176 0-.770465.640845-1.391353 1.432477-1.391353s1.432477.620888 1.432477 1.391353c0 .770466-.640845 1.394176-1.432477 1.394176Zm12.300746-5.582347.533554-.784577.533554-.773287L29.829743.722208c.147887-.214489.086993-.502355-.133388-.643466-.217482-.143933-.516156-.084667-.658244.129822l-1.815244 2.644418-.545154.795865C24.952361 2.996915 23.029826 2.632849 21 2.632849c-2.026926 0-3.952361.364066-5.677713 1.015998l-.542254-.795865-.536454-.781754L12.967688.208564c-.147887-.214489-.443661-.270933-.664043-.129822-.217481.141111-.278376.428977-.133388.643466l1.188898 1.738486.533554.773287.536454.784577c-4.050953 1.837264-6.791218 5.317058-6.791218 9.299208h26.72411c0-3.98215-2.740265-7.461944-6.788318-9.299208ZM7.843828 15.174785h-.205883v20.438501c0 1.622775 1.354184 2.943573 3.024441 2.943573h2.180613c-.075393.245533-.11599.502355-.11599.773288v5.884324C12.727009 46.75258 14.011599 48 15.591964 48c1.580364 0 2.864954-1.24742 2.864954-2.785529v-5.884324c0-.270933-.043496-.527755-.11599-.773288h5.318144c-.072494.245533-.11309.502355-.11309.773288v5.884324C23.545982 46.75258 24.827672 48 26.408036 48c1.583265 0 2.867855-1.24742 2.867855-2.785529v-5.884324c0-.270933-.043497-.527755-.11889-.773288h2.183513c1.670257 0 3.021541-1.320798 3.021541-2.943573V15.174785H7.843828Zm-4.978874 0C1.28169 15.174785 0 16.422205 0 17.960314v11.92387c0 1.538109 1.28169 2.785529 2.864954 2.785529 1.580365 0 2.862055-1.24742 2.862055-2.785529v-11.92387c0-1.538109-1.28169-2.785529-2.862055-2.785529Zm36.272991 0c-1.583264 0-2.864954 1.24742-2.864954 2.785529v11.92387c0 1.538109 1.28169 2.785529 2.864954 2.785529C40.71831 32.669713 42 31.422293 42 29.884184v-11.92387c0-1.538109-1.28169-2.785529-2.862055-2.785529Z" fill="#95CF00" fill-rule="evenodd"/></svg>