<?xml version="1.0" encoding="UTF-8"?>
<svg xmlns="http://www.w3.org/2000/svg" xmlns:xlink="http://www.w3.org/1999/xlink" width="300px" height="434px" viewBox="0 0 300 434" version="1.1">
<g id="surface1">
<path style=" stroke:none;fill-rule:nonzero;fill:rgb(5.098039%,4.705882%,13.333334%);fill-opacity:1;" d="M 268.476562 100.957031 L 268.179688 100.78125 L 267.488281 100.570312 C 267.765625 100.804688 268.113281 100.941406 268.476562 100.957031 Z M 268.476562 100.957031 "/>
<path style=" stroke:none;fill-rule:nonzero;fill:rgb(5.098039%,4.705882%,13.333334%);fill-opacity:1;" d="M 272.816406 131.960938 L 272.484375 132.054688 Z M 272.816406 131.960938 "/>
<path style=" stroke:none;fill-rule:nonzero;fill:rgb(5.098039%,4.705882%,13.333334%);fill-opacity:1;" d="M 268.601562 100.910156 C 268.5625 100.902344 268.519531 100.894531 268.480469 100.878906 C 268.476562 100.90625 268.476562 100.933594 268.480469 100.960938 C 268.523438 100.957031 268.566406 100.9375 268.601562 100.910156 Z M 268.601562 100.910156 "/>
<path style=" stroke:none;fill-rule:nonzero;fill:rgb(5.098039%,4.705882%,13.333334%);fill-opacity:1;" d="M 268.476562 100.960938 L 268.523438 100.960938 L 268.523438 100.933594 Z M 268.476562 100.960938 "/>
<path style=" stroke:none;fill-rule:nonzero;fill:rgb(5.098039%,4.705882%,13.333334%);fill-opacity:1;" d="M 272.550781 131.90625 L 273.050781 131.621094 L 273.238281 131.515625 L 273.40625 131.332031 C 273.089844 131.46875 272.796875 131.664062 272.550781 131.90625 Z M 272.550781 131.90625 "/>
<path style=" stroke:none;fill-rule:nonzero;fill:rgb(5.098039%,4.705882%,13.333334%);fill-opacity:1;" d="M 269.34375 101.632812 L 268.855469 101.167969 L 268.519531 100.984375 C 268.699219 101.300781 268.996094 101.535156 269.34375 101.632812 Z M 269.34375 101.632812 "/>
<path style=" stroke:none;fill-rule:nonzero;fill:rgb(5.098039%,4.705882%,13.333334%);fill-opacity:1;" d="M 145.933594 402.503906 C 145.542969 402.671875 145.199219 402.9375 144.933594 403.273438 L 145.246094 403.078125 C 145.457031 402.882812 145.753906 402.65625 145.933594 402.503906 Z M 145.933594 402.503906 "/>
<path style=" stroke:none;fill-rule:nonzero;fill:rgb(5.098039%,4.705882%,13.333334%);fill-opacity:1;" d="M 217.597656 388.40625 C 217.597656 387.964844 217.382812 388.042969 217.433594 389.621094 C 217.433594 389.492188 217.488281 389.363281 217.511719 389.242188 C 217.539062 388.960938 217.5625 388.6875 217.597656 388.40625 Z M 217.597656 388.40625 "/>
<path style=" stroke:none;fill-rule:nonzero;fill:rgb(5.098039%,4.705882%,13.333334%);fill-opacity:1;" d="M 210.164062 402.503906 C 209.773438 402.671875 209.429688 402.9375 209.164062 403.273438 L 209.476562 403.078125 C 209.683594 402.882812 209.984375 402.65625 210.164062 402.503906 Z M 210.164062 402.503906 "/>
<path style=" stroke:none;fill-rule:nonzero;fill:rgb(5.098039%,4.705882%,13.333334%);fill-opacity:1;" d="M 95.464844 405.855469 C 95.167969 405.597656 94.804688 405.429688 94.414062 405.363281 C 94.730469 405.515625 95.042969 405.667969 95.253906 405.785156 Z M 95.464844 405.855469 "/>
<path style=" stroke:none;fill-rule:nonzero;fill:rgb(5.098039%,4.705882%,13.333334%);fill-opacity:1;" d="M 84.109375 394.980469 C 84.0625 394.523438 83.921875 394.078125 83.695312 393.675781 C 83.855469 394.089844 83.988281 394.523438 84.097656 394.957031 Z M 84.109375 394.980469 "/>
<path style=" stroke:none;fill-rule:nonzero;fill:rgb(100%,86.666667%,0%);fill-opacity:1;" d="M 160.390625 200.488281 C 144.800781 207.160156 127.109375 214.726562 104.175781 214.726562 C 94.585938 214.707031 85.039062 213.390625 75.796875 210.816406 L 91.65625 373.625 C 92.21875 380.429688 95.320312 386.777344 100.34375 391.402344 C 105.367188 396.027344 111.945312 398.589844 118.777344 398.589844 C 118.777344 398.589844 141.261719 399.757812 148.765625 399.757812 C 156.84375 399.757812 181.058594 398.589844 181.058594 398.589844 C 187.886719 398.589844 194.464844 396.023438 199.484375 391.398438 C 204.507812 386.773438 207.609375 380.429688 208.167969 373.625 L 225.15625 193.714844 C 217.566406 191.121094 209.902344 189.398438 201.265625 189.398438 C 186.332031 189.394531 174.296875 194.539062 160.390625 200.488281 Z M 160.390625 200.488281 "/>
<path style=" stroke:none;fill-rule:nonzero;fill:rgb(5.098039%,4.705882%,13.333334%);fill-opacity:1;" d="M 26.703125 131.023438 L 26.972656 131.277344 L 27.148438 131.382812 C 27.011719 131.246094 26.863281 131.128906 26.703125 131.023438 Z M 26.703125 131.023438 "/>
<path style=" stroke:none;fill-rule:nonzero;fill:rgb(100%,100%,100%);fill-opacity:1;" d="M 298.496094 116 L 296.109375 103.953125 C 293.964844 93.144531 289.101562 82.933594 278.003906 79.027344 C 274.449219 77.777344 270.414062 77.242188 267.6875 74.65625 C 264.960938 72.070312 264.15625 68.050781 263.523438 64.328125 C 262.355469 57.488281 261.257812 50.648438 260.0625 43.820312 C 259.027344 37.953125 258.210938 31.363281 255.519531 25.980469 C 252.015625 18.75 244.746094 14.523438 237.515625 11.726562 C 233.8125 10.34375 230.03125 9.175781 226.195312 8.222656 C 208.132812 3.460938 189.144531 1.707031 170.5625 0.710938 C 148.261719 -0.519531 125.898438 -0.152344 103.648438 1.820312 C 87.089844 3.324219 69.648438 5.148438 53.910156 10.875 C 48.160156 12.96875 42.234375 15.488281 37.859375 19.929688 C 32.492188 25.390625 30.742188 33.832031 34.660156 40.640625 C 37.445312 45.472656 42.164062 48.890625 47.167969 51.148438 C 53.683594 54.0625 60.492188 56.277344 67.476562 57.757812 C 86.921875 62.054688 107.058594 63.742188 126.925781 64.460938 C 148.945312 65.351562 170.996094 64.628906 192.910156 62.308594 C 198.328125 61.710938 203.738281 60.996094 209.136719 60.164062 C 215.496094 59.1875 219.578125 50.875 217.703125 45.082031 C 215.460938 38.160156 209.433594 35.472656 202.621094 36.519531 C 201.617188 36.675781 200.617188 36.820312 199.613281 36.96875 L 198.890625 37.070312 C 196.582031 37.363281 194.273438 37.636719 191.964844 37.890625 C 187.195312 38.402344 182.414062 38.824219 177.621094 39.152344 C 166.890625 39.898438 156.128906 40.242188 145.371094 40.261719 C 134.804688 40.261719 124.226562 39.960938 113.683594 39.269531 C 108.871094 38.953125 104.070312 38.550781 99.28125 38.066406 C 97.105469 37.835938 94.933594 37.597656 92.761719 37.328125 L 90.691406 37.066406 L 90.242188 37.003906 L 88.101562 36.691406 C 83.71875 36.03125 79.339844 35.273438 75.007812 34.355469 C 74.570312 34.261719 74.179688 34.015625 73.898438 33.667969 C 73.621094 33.320312 73.464844 32.882812 73.464844 32.4375 C 73.464844 31.988281 73.621094 31.554688 73.898438 31.203125 C 74.179688 30.855469 74.570312 30.613281 75.007812 30.515625 L 75.089844 30.515625 C 78.84375 29.714844 82.628906 29.03125 86.425781 28.4375 C 87.691406 28.238281 88.957031 28.042969 90.230469 27.851562 L 90.265625 27.851562 C 92.644531 27.695312 95.03125 27.269531 97.394531 26.988281 C 117.972656 24.847656 138.667969 24.121094 159.34375 24.804688 C 169.382812 25.097656 179.414062 25.6875 189.40625 26.703125 C 191.554688 26.925781 193.691406 27.160156 195.828125 27.421875 C 196.648438 27.519531 197.46875 27.636719 198.292969 27.738281 L 199.953125 27.976562 C 204.785156 28.695312 209.597656 29.570312 214.378906 30.597656 C 221.46875 32.136719 230.574219 32.640625 233.726562 40.40625 C 234.730469 42.871094 235.1875 45.609375 235.742188 48.195312 L 236.445312 51.492188 C 236.464844 51.550781 236.480469 51.613281 236.488281 51.675781 C 238.160156 59.460938 239.832031 67.246094 241.503906 75.027344 C 241.625 75.605469 241.628906 76.199219 241.511719 76.773438 C 241.394531 77.351562 241.160156 77.898438 240.824219 78.378906 C 240.484375 78.859375 240.050781 79.265625 239.550781 79.574219 C 239.050781 79.878906 238.488281 80.082031 237.90625 80.160156 L 237.859375 80.160156 L 236.839844 80.300781 L 235.828125 80.4375 C 232.628906 80.851562 229.425781 81.242188 226.21875 81.605469 C 219.898438 82.324219 213.570312 82.945312 207.234375 83.472656 C 194.640625 84.519531 182.019531 85.207031 169.378906 85.53125 C 162.933594 85.703125 156.492188 85.785156 150.054688 85.773438 C 124.425781 85.753906 98.820312 84.261719 73.363281 81.3125 C 70.605469 80.984375 67.847656 80.632812 65.09375 80.277344 C 67.230469 80.550781 63.539062 80.066406 62.792969 79.960938 C 61.039062 79.71875 59.289062 79.460938 57.539062 79.199219 C 51.65625 78.316406 45.8125 77.230469 39.945312 76.277344 C 32.847656 75.109375 26.0625 75.695312 19.644531 79.199219 C 14.378906 82.082031 10.113281 86.5 7.425781 91.867188 C 4.65625 97.589844 3.832031 103.820312 2.59375 109.96875 C 1.359375 116.117188 -0.570312 122.730469 0.160156 129.042969 C 1.730469 142.664062 11.253906 153.734375 24.953125 156.210938 C 37.839844 158.542969 50.796875 160.4375 63.792969 162.046875 C 114.828125 168.296875 166.390625 169.046875 217.585938 164.277344 C 221.753906 163.890625 225.917969 163.464844 230.078125 163.003906 C 231.375 162.863281 232.6875 163.011719 233.921875 163.441406 C 235.15625 163.875 236.277344 164.574219 237.203125 165.496094 C 238.132812 166.417969 238.839844 167.53125 239.28125 168.761719 C 239.71875 169.992188 239.878906 171.304688 239.746094 172.605469 L 238.449219 185.203125 C 235.839844 210.664062 233.226562 236.121094 230.613281 261.578125 C 227.890625 288.3125 225.144531 315.042969 222.386719 341.769531 C 221.609375 349.300781 220.828125 356.828125 220.050781 364.351562 C 219.304688 371.761719 219.199219 379.402344 217.789062 386.726562 C 215.570312 398.238281 207.777344 405.308594 196.402344 407.894531 C 185.980469 410.265625 175.335938 411.511719 164.648438 411.609375 C 152.800781 411.671875 140.957031 411.144531 129.109375 411.210938 C 116.460938 411.28125 100.96875 410.113281 91.207031 400.703125 C 82.628906 392.4375 81.441406 379.492188 80.277344 368.296875 C 78.71875 353.476562 77.175781 338.664062 75.644531 323.847656 L 67.0625 241.46875 L 61.507812 188.171875 C 61.414062 187.289062 61.320312 186.417969 61.234375 185.53125 C 60.566406 179.171875 56.066406 172.949219 48.972656 173.269531 C 42.898438 173.539062 35.996094 178.699219 36.707031 185.53125 L 40.824219 225.046875 L 49.339844 306.789062 C 51.765625 330.003906 54.183594 353.226562 56.597656 376.453125 C 57.066406 380.902344 57.503906 385.363281 57.992188 389.8125 C 60.660156 414.125 79.230469 427.226562 102.226562 430.914062 C 115.65625 433.078125 129.414062 433.523438 143.042969 433.742188 C 160.511719 434.023438 178.160156 434.695312 195.34375 431.53125 C 220.808594 426.855469 239.914062 409.855469 242.644531 383.484375 C 243.421875 375.871094 244.199219 368.253906 244.976562 360.636719 C 247.566406 335.445312 250.152344 310.25 252.734375 285.054688 L 261.175781 202.730469 L 265.046875 165.003906 C 265.242188 163.132812 266.03125 161.371094 267.300781 159.984375 C 268.570312 158.597656 270.253906 157.65625 272.101562 157.300781 C 279.382812 155.882812 286.34375 153.460938 291.523438 147.917969 C 299.769531 139.097656 301.410156 127.59375 298.496094 116 Z M 24.582031 124.136719 C 24.691406 124.085938 24.488281 125.035156 24.398438 125.480469 C 24.382812 124.808594 24.417969 124.214844 24.582031 124.136719 Z M 25.285156 129.601562 C 25.34375 129.5625 25.519531 129.796875 25.703125 130.074219 C 25.425781 129.820312 25.25 129.625 25.28125 129.601562 Z M 25.980469 130.519531 C 26.234375 130.945312 26.367188 131.214844 25.980469 130.519531 Z M 27.378906 131.652344 L 27.414062 131.652344 C 27.414062 131.691406 27.476562 131.734375 27.5 131.773438 C 27.460938 131.730469 27.417969 131.6875 27.371094 131.652344 Z M 271.761719 129.957031 C 269.148438 132.445312 265.207031 133.601562 261.3125 134.179688 C 217.632812 140.660156 173.320312 143.941406 129.160156 142.496094 C 97.558594 141.414062 66.289062 137.90625 35.003906 133.484375 C 31.9375 133.054688 28.617188 132.492188 26.507812 130.234375 C 22.535156 125.972656 24.488281 117.386719 25.519531 112.238281 C 26.464844 107.519531 28.277344 101.234375 33.886719 100.5625 C 42.648438 99.535156 52.820312 103.230469 61.484375 104.542969 C 71.917969 106.136719 82.390625 107.410156 92.898438 108.367188 C 137.757812 112.453125 183.367188 111.816406 228.027344 105.839844 C 236.167969 104.746094 244.277344 103.476562 252.359375 102.027344 C 259.558594 100.738281 267.542969 98.3125 271.890625 105.769531 C 274.875 110.847656 275.273438 117.644531 274.8125 123.382812 C 274.667969 125.886719 273.578125 128.238281 271.757812 129.957031 Z M 271.761719 129.957031 "/>
</g>
</svg>
