<svg width="800" height="800" viewBox="0 0 256 256" xmlns="http://www.w3.org/2000/svg" preserveAspectRatio="xMidYMid"><defs><linearGradient x1="0%" y1="50%" x2="99.7986577%" y2="50%" id="a"><stop stop-color="#F97A12" offset="26%"/><stop stop-color="#B07B58" offset="46%"/><stop stop-color="#577BAE" offset="72%"/><stop stop-color="#1E7CE5" offset="91%"/><stop stop-color="#087CFA" offset="100%"/></linearGradient><linearGradient x1=".34482759%" y1="34.5396825%" x2="121.182266%" y2="77.6190476%" id="b"><stop stop-color="#F97A12" offset="0%"/><stop stop-color="#CB7A3E" offset="7%"/><stop stop-color="#9E7B6A" offset="15%"/><stop stop-color="#757B91" offset="24%"/><stop stop-color="#537BB1" offset="33%"/><stop stop-color="#387CCC" offset="43%"/><stop stop-color="#237CE0" offset="54%"/><stop stop-color="#147CEF" offset="66%"/><stop stop-color="#0B7CF7" offset="79%"/><stop stop-color="#087CFA" offset="100%"/></linearGradient><linearGradient x1="78.1690141%" y1="97.7493606%" x2="30.1056338%" y2="-6.62404092%" id="c"><stop stop-color="#FE315D" offset="0%"/><stop stop-color="#CB417E" offset="8%"/><stop stop-color="#9E4E9B" offset="16%"/><stop stop-color="#755BB4" offset="25%"/><stop stop-color="#5365CA" offset="34%"/><stop stop-color="#386DDB" offset="44%"/><stop stop-color="#2374E9" offset="54%"/><stop stop-color="#1478F3" offset="66%"/><stop stop-color="#0B7BF8" offset="79%"/><stop stop-color="#087CFA" offset="100%"/></linearGradient><linearGradient x1="20%" y1="24.0865385%" x2="103.421589%" y2="132.676282%" id="d"><stop stop-color="#FE315D" offset="0%"/><stop stop-color="#F63462" offset="4%"/><stop stop-color="#DF3A71" offset="10%"/><stop stop-color="#C24383" offset="17%"/><stop stop-color="#AD4A91" offset="29%"/><stop stop-color="#755BB4" offset="55%"/><stop stop-color="#1D76ED" offset="92%"/><stop stop-color="#087CFA" offset="100%"/></linearGradient></defs><path fill="url(#a)" d="m64.8 199.6-62-48.8 30.8-57.2L122 128z"/><path fill="url(#b)" d="m256 68.4-4.8 148-98.4 39.6-59.2-38.4L180 128l-37.6-83.2 34-40.8z"/><path fill="url(#c)" d="m256 68.4-78 92-35.6-115.6 34-40.8z"/><path fill="url(#d)" d="M123.2 212.4 20.8 249.6 37.2 192l21.2-71.2L0 101.2 37.2 0l80 9.6 79.2 90.4z"/><path d="M48 48h160v160H48z"/><path d="M63.2 178h60v10h-60v-10ZM106 80.8v-12H73.2v12h9.2v42h-9.2v12.4H106v-12.4h-9.2v-42h9.2Zm32 55.2c-4.566649.205984-9.110237-.757807-13.2-2.8-3.346034-1.845975-6.327998-4.285763-8.8-7.2l9.2-10.4c1.661272 1.82513 3.542265 3.43741 5.6 4.8 1.93613 1.135124 4.157474 1.69046 6.4 1.6 2.466127.188479 4.864692-.860893 6.4-2.8 1.852667-2.386058 2.712461-5.395334 2.4-8.4V68h14.8v43.2c.151789 3.537935-.391805 7.071293-1.6 10.4-1.055421 3.377032-2.987809 6.413641-5.6 8.8-4.533251 3.365567-9.961237 5.314074-15.6 5.6Z" fill="#FFF"/></svg>