<svg xmlns="http://www.w3.org/2000/svg" width="256" height="256"><path fill="#9449D9" d="m164 4 2.07.617C182.926 9.88 198.553 18.63 212 30l2.324 1.902C233.59 48.085 246.424 72.025 253 96l1.027 3.559c4.768 20.059 3.848 44.743-2.027 64.441l-.617 2.07C246.12 182.926 237.37 198.553 226 212l-1.902 2.324C207.915 233.59 183.975 246.424 160 253l-3.559 1.027C136.382 258.795 111.698 257.875 92 252l-2.07-.617C73.074 246.12 57.447 237.37 44 226l-2.324-1.902C22.41 207.915 9.576 183.975 3 160l-1.027-3.559C-2.795 136.382-1.875 111.698 4 92l.617-2.07C9.88 73.074 18.63 57.447 30 44l1.902-2.324C48.085 22.41 72.025 9.576 96 3l3.559-1.027C119.618-2.795 144.302-1.875 164 4"/><path fill="#FDFDFE" d="M104 59c-2.287 2.583-4.381 3.774-7.57 5.05l-2.72 1.12q-2.798 1.128-5.6 2.25C81.881 69.988 76.457 73.05 71 77l2.324-1.137C87.216 69.458 102.645 65.263 118 65l2.197-.058c20.116-.49 38.932 1.781 57.51 10.105 2.187 1.08 2.187 1.08 4.293.953-9.861-5.046-19.757-9.775-30-14v-3c14.554-1.514 30.44 4.67 41.941 13.488C208.201 86.365 211.857 113.438 216 132l.727 3.172c.583 2.942.945 5.845 1.273 8.828l.364 2.638c2.544 19.384 2.544 19.384-1.626 25.37-2.875 3.242-6.137 5.6-9.738 7.992l-2.64 1.898c-7.105 4.698-15.828 8.36-24.36 9.102l-2.078.367c-3.946.443-6.056.317-9.242-2.199-3.608-3.898-5.993-6.796-6.68-12.168l1.8-.629c7.632-2.836 16.564-6.417 21.2-13.371l-2.754 1.355c-17.47 8.46-33.78 13.074-53.309 13.02l-2.224-.002C109.643 177.315 95.62 173.833 80 167l-2.934-1.273c-2.029-.893-4.049-1.807-6.066-2.727 6.797 7.155 15.2 10.888 24 15-7.344 11.172-7.344 11.172-11 13-12.74 1.576-24.792-3.82-35-11l-1.705-1.105c-4.36-2.924-8.09-6.034-10.295-10.895-1.508-7.94-.15-16.09 1-24l.38-2.856c2.829-20.55 7.904-53.304 23.397-68.515C74.246 63.49 88.445 57.99 104 59"/><path fill="#964ED9" d="M104 106c25.558 0 25.558 0 30.855 4.617 4.202 4.65 6.603 8.736 6.387 15.168-.63 5.77-2.092 10.576-6.367 14.653C125.81 147.185 115.008 145 104 145zM159 106h12a464 464 0 0 1 9.813 25.125l1.232 3.398 2.208 6.145C185 143 185 143 185 145h-10c-1.257-2.906-2-4.796-2-8l-15 1-2 7h-10c1.57-8.539 4.59-16.464 7.625-24.562l1.563-4.213Q157.085 111.11 159 106"/><path fill="#974FD9" d="M75 106h19c.07 4.163.129 8.324.165 12.488q.022 2.121.061 4.242c.037 2.04.054 4.08.067 6.122l.048 3.713c-.456 4.59-1.878 7.972-5.153 11.248C83.78 146.747 77.014 146.385 71 146c-1-1-1-1-1.062-4.562L70 138l2.336-.148 3.039-.227 3.023-.21c2.757-.179 2.757-.179 4.602-2.415.37-2.325.37-2.325.414-5.008l.117-2.988.094-3.129.117-3.152q.142-3.86.258-7.723h-9z"/><path fill="#FDFDFE" d="M114 114c10.631 0 10.631 0 14.746 4.02 2.405 3.798 2.042 7.689 1.254 11.98-1.795 4.308-2.69 4.845-7 7h-9z"/><path fill="#F5F1FB" d="M165 117c3.572 3.572 4 8.102 4 13h-8q.429-2.127.875-4.25l.492-2.39c.625-2.328 1.481-4.25 2.633-6.36"/></svg>