<svg xmlns="http://www.w3.org/2000/svg" width="64" height="64"><path d="M25.742 3.824c.137.016.137.016.274.028q.293.021.582.05.463.043.925.078l1.461.13q1.306.117 2.618.23l.914.082q.353.032.707.062c.125.008.125.008.25.024.914.16.914.16 1.746-.192.476-.476 1.027-.414 1.605-.351.336.12.637.258.887.594.16.02.16.02.344 0l.215-.012c.117-.012.117-.012.234-.016.078-.008.16-.011.242-.02.25-.015.496-.034.746-.054q.11-.005.227-.016c.504-.035 1.011-.078 1.52-.117q.24-.02.48-.043.499-.035.992-.078l1.266-.105q.494-.037.988-.078c.152-.012.308-.028.465-.04q.325-.024.652-.054.099-.005.203-.016.668-.053 1.332-.129c.27-.023.512.008.778.059l.273.047c.324.097.535.261.766.57.086.477.086.95.086 1.434v.234q.004.253.003.5v.758c.004.16.004.324.004.484v.227c0 .52-.011 1.09-.28 1.492-.34.23-.692.422-1.075.422v.691c-.66.418-1.254.434-1.969.383q-.17-.013-.34-.02a45 45 0 0 1-.726-.042 54 54 0 0 0-1.14-.06l-1.755-.081-1.203-.059a56 56 0 0 0-.789-.039c-.125-.008-.25-.011-.375-.02q-.253-.01-.512-.027l-.293-.011c-.246-.024-.246-.024-.543-.121v6.738h1.485c.617.492.617.492.742.988.008.14.008.281.008.426v.82q.001.451-.004.903v.613c0 .5-.004 1-.004 1.5a4 4 0 0 1 .215-.016c.14-.004.14-.004.281-.012l.281-.011c.305.043.414.148.633.433.277.532.25 1.051.234 1.672v.293l-.011.711c.047.027.09.059.136.086.278.195.434.41.532.805q.01.258.015.515c0 .106.004.211.004.32 0 .114.004.227.004.34 0 .118.004.235.004.356q.005.556.016 1.113.001.377.007.754l.024 1.852.129-.094c.297-.184.601-.176.906-.035.336.226.465.46.598.922.023.328.02.648.011.98q0 .128-.003.262-.001.324-.008.64.095-.01.195-.015c.703-.04.703-.04 1.012.215.16.375.176.676.129 1.09-.075.343-.075.343-.149.593l.215.063c.309.113.535.332.793.57.176.16.355.301.543.434.055.039.11.074.164.113.191.098.363.148.563.195.39.098.73.274 1.093.489l.188.109q.556.323 1.113.668.28.166.566.324.09.048.188.102.18.1.367.199a5.6 5.6 0 0 1 1.387 1.082c.23.234.465.438.71.637.43.363.794.789 1.161 1.258l.152.187c.891 1.117 1.414 2.574 1.848 4.07q.1-.011.2-.02.416-.044.84-.077c.073-.008.148-.012.222-.02.672-.035 1.293.168 1.93.414.066.028.132.051.199.078.824.403 1.328 1.399 1.683 2.41q.099.294.196.583c.03.093.066.183.097.28.266.75.5 1.524.742 2.294.036.105.036.105.067.21.18.598.222 1.22.066 1.837-.34.953-.867 1.718-1.441 2.43l-.168.206a10 10 0 0 1-1.219 1.266q-.21.2-.422.406-.1.1-.207.203-.165.159-.328.328c-.293.301-.586.465-.93.637-.257.149-.472.352-.695.567-.242.203-.488.308-.758.433q-.081.07-.176.145c-.515.406-1.097.625-1.671.855a9 9 0 0 0-.563.246 8.3 8.3 0 0 1-1.297.438q-.075.02-.152.043c-.965.258-1.934.293-2.914.3-.145.004-.285.008-.43.008-1.46.032-1.46.032-2.07-.547l-.18-.152c-.543-.465-.797-1.183-1.078-1.93-.043-.105-.082-.207-.125-.316q-.164-.433-.32-.871l-.102-.277c-.375-1.063-.754-2.157-.516-3.348.313-1.14.891-2.059 1.579-2.832.207-.254.382-.535.562-.824.05-.075.05-.075.106-.153h.148v-.195c-.086.004-.172.012-.266.016-1.136.054-1.136.054-1.66-.395-.187-.144-.3-.203-.52-.215-.218.086-.421.215-.628.34-1.68.945-3.504 1.43-5.309 1.738q-.076.017-.16.028c-1.148.191-2.3.207-3.46.203q-.317-.001-.626.004c-3.14.023-7.012-.242-9.785-2.442-.535-.414-1.008-.437-1.617-.43h-.293q-.304-.001-.61.005c-.261.004-.52 0-.78 0h-1.032c-.086 0-.172.004-.262.004-.117.003-.117.003-.23.003-.262.063-.383.22-.582.446-.086.031-.172.058-.262.09-.328.14-.383.32-.555.703-.215.27-.355.336-.648.332h-.211q-.113-.005-.227-.004h-.234l-.738-.012c-.164 0-.332-.004-.5-.004q-.612-.005-1.223-.015c-.008.078-.02.156-.027.234-.067.36-.196.457-.418.656a1.04 1.04 0 0 1-.535.11q-.141-.007-.282-.008.007.134.02.273c-.02.32-.02.32-.145.535-.215.227-.328.235-.597.235h-.246c-.086 0-.168 0-.258-.004q-.124.005-.254.004h-.473c-.254-.067-.34-.18-.496-.45-.043-.34-.043-.34-.05-.71.015-.418.015-.418-.098-.774a6 6 0 0 0-.446-.02c-.097 0-.191-.003-.293-.007h-.156q-.239-.001-.484-.008a91 91 0 0 0-1.031-.016c-.399-.007-.793-.011-1.192-.02q-.236 0-.473-.007c-1.582-.023-1.582-.023-2.191-.84-.535-.86-.793-1.957-.96-3.035-.013-.074-.028-.145-.04-.223-.121-.843-.09-1.703-.078-2.562-.086 0-.176.004-.266.004-.324.004-.648.004-.972.008q-.212-.001-.422.004-.304.004-.61.003-.093-.001-.187.004c-.547 0-.992-.086-1.402-.617-.145-.578-.149-1.183.05-1.734.176-.25.317-.39.543-.543l.18-.153a4 4 0 0 0 .191-.148q.099-.076.196-.152c.293-.168.55-.192.863-.192l.172-.008.543-.011.367-.012q.451-.013.902-.02l.063-.273.082-.36q.035-.175.078-.355c.074-.3.074-.3.148-.5q-.093.007-.187.008-.352.011-.7.016-.22.004-.449.015c-.652.004-1.042-.062-1.57-.593-.484-.66-.804-1.348-.804-2.297.058-1.559.23-2.782 1.101-3.895.367-.426.711-.781 1.2-.879v-.199c.804-.617 1.597-.566 2.495-.563h.47q.486-.001.968.004.626.001 1.246-.004c.32-.003.64 0 .96 0h.458q.32-.003.64.004.095-.005.188-.004c.45.012.758.176 1.106.563.195.355.222.543.226.984-.059.465-.258.797-.523 1.098h-.149l-.05.172c-.165.379-.383.582-.692.719-.187.011-.367.015-.555.02q-.085 0-.172.003c-.187.004-.375.004-.562.008-.125 0-.258.004-.387.004q-.51.01-1.02.015-.521.011-1.042.016-1.026.016-2.047.031c.039.489.039.489.176.934.316.254.64.207 1.004.195h.222c.395.004.395.004.77-.137.226-.113.402-.125.648-.125q.13-.002.266-.003h.285q.226.001.45-.004.55-.005 1.1-.004c.208 0 .41-.004.618-.004q.291-.005.582-.004c.09 0 .176-.004.27-.004h.23c.254-.062.328-.195.5-.445q.13-.063.266-.133c.328-.215.347-.41.476-.86.195-.3.309-.468.594-.593q.252-.019.504-.02.074.001.156-.004c.168 0 .336-.004.508-.004h.176c.304-.003.613-.007.918-.007q.381-.001.757-.008c.309-.008.614-.008.922-.008q.171-.001.348-.008c.648-.012 1.184 0 1.719.551v.2q.063.037.133.073c.199.149.32.329.472.559.051.074.098.152.153.23.12.204.203.387.28.625l.106-.562q.035-.157.063-.32c.086-.465.136-.868.125-1.348-.008-1.633-.008-1.633.32-2.246.215-.188.402-.281.648-.379l.141-.152c.29-.266.629-.196.969-.196q.105-.004.223-.007c.351 0 .539 0 .828.285.257.492.215.914.164 1.496-.004.074-.012.144-.016.222-.043.508-.148.805-.379 1.227.016.242.067.375.149.594-.004.207-.016.414-.028.617q-.012.168-.02.336-.039.467-.1.93.104-.148.202-.301c.371-.57.73-1.07 1.207-1.485.04-.039.082-.074.121-.117.77-.699 1.461-.832 2.375-.8q.155.006.309.007.38.007.754.02v-.27a533 533 0 0 1-.02-2.5q0-.645-.007-1.289-.007-.616-.008-1.238.001-.24-.004-.473v-.664q-.005-.189-.004-.383c.043-.316.043-.316.223-.558.191-.156.191-.156.34-.156.074-.293.085-.5.09-.81q.003-.15.007-.304l.012-.633q-.001-.146.004-.304.005-.134.004-.274a1.23 1.23 0 0 1 .254-.648c.168-.04.168-.04.347-.024l.184.012.137.012q.002-.083.003-.172c.028-.602.106-.906.442-1.312h.297c0-.153 0-.153-.004-.305-.008-.371-.008-.742-.012-1.113q-.001-.24-.008-.48c0-.231-.004-.466-.004-.696-.004-.07-.004-.145-.004-.215 0-.348.012-.527.172-.805.254-.246.442-.18.75-.152v-.172c.016-.45.047-.738.29-1.066.355-.434.601-.344 1.12-.344v-6.738l-2.054.105-1.29.07-2.046.106-1.488.082-.79.039-.882.047q-.129.005-.258.015-.24.013-.477.02-.195.011-.39.027c-.528.035-.742-.14-1.305-.414V5.65c.586-.336.586-.336.89-.297q.006-.093.005-.184c.035-.64.035-.64.191-.953.691-.606 1.664-.461 2.45-.39m0 0" style="stroke:none;fill-rule:nonzero;fill:#404040;fill-opacity:1"/><path d="M22.797 31.652q.105-.004.223-.007c.351 0 .539 0 .828.285.257.492.215.914.164 1.496-.004.074-.012.144-.016.222-.043.508-.148.805-.379 1.227.016.242.067.375.149.594-.004.207-.016.414-.028.617l-.023.336q-.035.467-.098.93.105-.148.203-.301c.942-1.45.942-1.45 1.504-1.582a9 9 0 0 1-.562.84c-.457.629-.621 1.265-.703 2.12q-.017.193-.04.391l-.035.407c-.015.132-.027.27-.039.402q-.036.376-.074.746-.032.362-.074.719c-.086.816-.05 1.515.312 2.215.286.476.633.78 1.067.976.11.008.222.016.332.016.101 0 .101 0 .203.004h.223l.46.011c.243 0 .485.008.723.008l.703.012c.07 0 .145.004.22.004.1 0 .1 0 .206.004h.18c.203.05.308.144.457.336.043.293.043.293 0 .597-.258.352-.477.48-.84.504h-.636c-.165 0-.329.004-.493.004q-.382.005-.77.004c-.246-.004-.496 0-.742.004-.117 0-.117 0-.23-.004-.387 0-.387 0-.723.211-.137.215-.23.406-.273.684.043.37.078.53.285.8.672.418 1.312.512 2.047.508q.135-.001.27.004h.562c.289-.004.574 0 .86.004h.546c.129 0 .129 0 .258.004.484-.008.855-.094 1.293-.363.144-.086.144-.086.293-.086v-.2l.164-.148c.578-.687.652-1.652.726-2.633q.031-.304.055-.61l.035-.425c.063-.695.137-1.387.211-2.078.024-.203.043-.406.067-.61q.089-.824.18-1.644.056-.516.113-1.031c.02-.188.043-.38.062-.567.145-1.097.145-1.097-.055-2.14-.12-.196-.246-.395-.37-.594h2.597c-.074.195-.074.195-.273.324-.528.36-.985.934-1.204 1.68a16 16 0 0 0-.277 1.773q-.011.136-.027.278l-.059.574c-.031.293-.058.586-.09.875l-.058.562q-.017.134-.028.262c-.09.914-.129 1.715.286 2.5.218.367.457.652.765.879l.203.152c.426.239.887.192 1.34.196.098.004.2.004.297.004.262.007.52.007.777.011l.797.012c.52.008 1.035.016 1.555.02q-.072.15-.149.3c-.023.297-.023.297-.023.641v.195q-.005.322-.004.645c-.004.148-.004.297-.008.445-.004.39-.004.781-.008 1.172l-.011 1.191c-.008.786-.012 1.567-.02 2.348 4.29-.55 4.29-.55 8.317-2.484.191-.125.3-.14.511-.09.13.16.25.324.371.492.516.387.993.316 1.567.277.535-.02.535-.02.82.2.137.218.137.218.211.515q-.217.2-.433.395l-.247.222c-.21.176-.21.176-.359.176v.2c-.121.062-.242.128-.371.195v.199h-.223c-.02.062-.039.129-.058.191-.09.203-.09.203-.313.305q-.076.194-.148.395c-.078.144-.164.28-.25.421-.375.637-.707 1.313-.64 2.153.245 1.261.679 2.457 1.148 3.594l.101.261c.285.696.59 1.149 1.098 1.57l.21.18c.325.25.61.258.977.262h.168q.275.005.551.004h.188c1.664-.004 3.367-.203 4.91-1.113l.261-.082c.61-.188 1.207-.575 1.739-1.008l.375-.211c.222-.133.425-.293.636-.453.176-.13.356-.242.54-.356.64-.43 1.187-1.008 1.671-1.707.118-.148.118-.148.266-.148q.034-.146.074-.297.128-.168.262-.336c.406-.586.672-1.184.668-1.984-.09-.79-.383-1.516-.633-2.235l-.07-.207c-.098-.281-.2-.558-.297-.836-.078-.246-.078-.246-.078-.543h-.223q-.03-.15-.055-.312a3.2 3.2 0 0 0-.39-.977q-.082-.147-.168-.3c-.582-.755-1.664-.872-2.43-.887l-.222-.008c-.547-.012-1.086.043-1.633.105a8 8 0 0 0-.055-.265c-.348-1.496-.848-2.832-1.648-3.992q-.069-.106-.137-.211c-.48-.7-1.102-1.18-1.715-1.637q-.076-.069-.152-.137v-.195a1 1 0 0 0-.137-.031c-.16-.07-.16-.07-.258-.207-.164-.207-.328-.301-.535-.426-.086-.051-.168-.102-.258-.153-.398-.238-.797-.46-1.203-.68-.277-.156-.55-.316-.82-.5a2.6 2.6 0 0 0-.672-.343 1.5 1.5 0 0 1-.57-.336 4 4 0 0 0-.352-.086c-.36-.09-.598-.25-.91-.508l-.18-.093a2.5 2.5 0 0 1-.516-.403 2 2 0 0 0-.859-.496l.297-.594c.34.051.55.164.832.422.266.23.523.453.805.649.05.039.105.074.16.113.187.098.355.145.555.191.39.098.73.274 1.093.489.09.054.09.054.188.109q.556.323 1.113.668.28.166.566.324.09.048.188.102.18.1.367.199a5.6 5.6 0 0 1 1.387 1.082c.23.234.465.438.71.637.43.363.794.789 1.161 1.258q.076.087.152.187c.891 1.117 1.414 2.574 1.848 4.07q.1-.011.2-.02.416-.044.84-.077c.073-.008.148-.012.222-.02.672-.035 1.293.168 1.93.414.066.028.132.051.199.078.824.403 1.328 1.399 1.683 2.41q.099.294.196.583c.03.093.066.183.097.28.266.75.5 1.524.742 2.294.036.105.036.105.067.21.18.598.222 1.22.066 1.837-.34.953-.867 1.718-1.441 2.43l-.168.206a10 10 0 0 1-1.219 1.266q-.21.2-.422.406-.1.1-.207.203-.165.159-.328.328c-.293.301-.586.465-.93.637-.257.149-.472.352-.699.567-.238.203-.484.308-.754.433q-.081.07-.176.145c-.515.406-1.097.625-1.671.855a9 9 0 0 0-.563.246 8.3 8.3 0 0 1-1.297.438q-.075.02-.152.043c-.965.258-1.934.293-2.914.3-.145.004-.285.008-.43.008-1.46.032-1.46.032-2.07-.547l-.18-.152c-.543-.465-.797-1.183-1.078-1.93-.043-.105-.082-.207-.125-.316q-.164-.433-.32-.871l-.102-.277c-.375-1.063-.754-2.157-.516-3.348.313-1.14.891-2.059 1.579-2.832.207-.254.382-.535.562-.824.05-.075.05-.075.106-.153h.148v-.195l-.266.016c-1.136.054-1.136.054-1.66-.395-.187-.144-.3-.203-.52-.215-.218.086-.421.215-.628.34-1.68.945-3.504 1.43-5.309 1.738q-.076.017-.16.028c-1.148.191-2.3.207-3.46.203q-.317-.001-.626.004c-3.14.023-7.012-.242-9.785-2.442-.535-.414-1.008-.437-1.617-.43h-.293q-.304-.001-.61.005c-.261.004-.52 0-.78 0h-1.032c-.086 0-.172.004-.262.004-.117.003-.117.003-.23.003-.262.063-.383.22-.582.446-.086.031-.172.058-.262.09-.328.14-.383.32-.555.703-.215.27-.355.336-.648.332h-.211q-.113-.005-.227-.004h-.234l-.738-.012c-.164 0-.332-.004-.5-.004q-.612-.005-1.223-.015c-.008.078-.02.156-.027.234-.067.36-.196.457-.418.656a1.04 1.04 0 0 1-.535.11q-.141-.007-.282-.008.007.134.02.273c-.02.32-.02.32-.145.535-.215.227-.328.235-.597.235h-.246c-.086 0-.168 0-.258-.004-.125.004-.125.004-.254.004h-.473c-.254-.067-.34-.18-.496-.45-.043-.34-.043-.34-.05-.71.015-.418.015-.418-.098-.774a6 6 0 0 0-.446-.02c-.097 0-.191-.003-.293-.007h-.156q-.239-.001-.484-.008a91 91 0 0 0-1.031-.016c-.399-.007-.793-.011-1.192-.02q-.236 0-.473-.007c-1.582-.023-1.582-.023-2.191-.84-.535-.86-.793-1.957-.96-3.035-.013-.074-.028-.145-.04-.223-.121-.843-.09-1.703-.078-2.562-.086 0-.176.004-.266.004-.324.004-.648.004-.972.008q-.212-.001-.422.004-.304.004-.61.003-.093-.001-.187.004c-.547 0-.992-.086-1.402-.617-.145-.578-.149-1.183.05-1.734.176-.25.317-.39.543-.543l.18-.153a4 4 0 0 0 .191-.148q.099-.076.196-.152c.293-.168.55-.192.863-.192q.083-.007.172-.008l.543-.011.367-.012q.451-.013.902-.02.03-.134.063-.273c.039-.176.039-.176.082-.36l.078-.355c.074-.3.074-.3.148-.5l-.187.008q-.352.011-.7.016-.22.004-.449.015c-.652.004-1.042-.062-1.57-.593-.484-.66-.804-1.348-.804-2.297.058-1.559.23-2.782 1.101-3.895.367-.426.711-.781 1.2-.879v-.199c.804-.617 1.597-.566 2.495-.563h.47q.486-.001.968.004.626.001 1.246-.004c.32-.003.64 0 .96 0h.458q.32-.003.64.004c.094-.004.094-.004.188-.004.45.012.758.176 1.106.563.195.355.222.543.226.984-.059.465-.258.797-.523 1.098h-.149l-.05.172c-.165.379-.383.582-.692.719-.187.011-.367.015-.555.02q-.085 0-.172.003c-.187.004-.375.004-.562.008-.125 0-.258.004-.387.004q-.51.01-1.02.015-.521.011-1.042.016-1.026.016-2.047.031c.039.489.039.489.176.934.316.254.64.207 1.004.195h.222c.395.004.395.004.77-.137.226-.113.402-.125.648-.125q.13-.002.266-.003h.285q.226.001.45-.004.55-.005 1.1-.004c.208 0 .41-.004.618-.004q.291-.005.582-.004c.09 0 .176-.004.27-.004h.23c.254-.062.328-.195.5-.445q.13-.063.266-.133c.328-.215.347-.41.476-.86.195-.3.309-.468.594-.593q.252-.019.504-.02.074.001.156-.004c.168 0 .336-.004.504-.004h.18c.304-.003.613-.007.918-.007q.381-.001.757-.008c.309-.008.614-.008.922-.008q.171-.001.348-.008c.648-.012 1.184 0 1.719.551v.2q.063.037.133.073c.199.149.32.329.472.559.051.074.098.152.153.23.12.204.203.387.28.625l.106-.562q.035-.157.063-.32c.086-.465.136-.868.125-1.348-.008-1.633-.008-1.633.32-2.246.215-.188.402-.281.648-.379l.141-.152c.29-.266.629-.196.969-.196m0 0" style="stroke:none;fill-rule:nonzero;fill:#3b3b3b;fill-opacity:1"/><path d="M25.742 3.824c.137.016.137.016.274.028q.293.021.582.05.463.043.925.078l1.461.13q1.306.117 2.618.23l.914.082q.353.032.707.062c.125.008.125.008.25.024.914.16.914.16 1.746-.192.476-.476 1.027-.414 1.605-.351.336.12.637.258.887.594.16.02.16.02.344 0l.215-.012c.078-.008.152-.012.234-.016.078-.008.16-.011.242-.02.25-.015.496-.034.746-.054q.11-.005.227-.016c.504-.035 1.011-.078 1.52-.117q.24-.02.48-.043.499-.035.992-.078l1.266-.105q.494-.037.988-.078c.152-.012.308-.028.465-.04q.325-.024.652-.054.099-.005.203-.016.668-.053 1.332-.129c.27-.023.512.008.778.059l.273.047c.324.097.535.261.766.57.086.477.086.95.086 1.434v.234q.004.253.003.5v.758c.004.16.004.324.004.484v.227c0 .52-.011 1.09-.28 1.492-.34.23-.692.422-1.075.422v.691c-.66.418-1.254.434-1.969.383q-.17-.013-.34-.02a45 45 0 0 1-.726-.042 54 54 0 0 0-1.14-.06l-1.755-.081-1.203-.059a56 56 0 0 0-.789-.039c-.125-.008-.25-.011-.375-.02q-.253-.01-.512-.027l-.293-.011c-.246-.024-.246-.024-.543-.121v6.738h1.485c.617.492.617.492.742.988.008.14.008.281.008.426v.82q.001.451-.004.903v.613c0 .5-.004 1-.004 1.5a4 4 0 0 1 .215-.016c.14-.004.14-.004.281-.012l.281-.011c.305.043.414.148.633.433.277.532.25 1.051.234 1.672v.293l-.011.711c.047.027.09.059.136.086.278.195.434.41.532.805.008.172.011.34.011.512.004.156.004.156.004.316q.007.719.008 1.437c.004.25.004.504.008.758.004.36.008.727.008 1.09 0 .113.004.223.004.34 0 .719-.098 1.113-.414 1.687-.079.243-.079.243-.118.461-.289 1.235-.289 1.235-.632 1.508a2.2 2.2 0 0 1-.66.113 6.4 6.4 0 0 0-.149 1.985c.2.265.398.3.668.394.012.676-.02 1.32-.098 1.989l-.058.566q-.052.438-.098.875c-.312 1.95-.312 1.95-.043 3.8.266.278.48.446.816.497-.078.148-.078.148-.222.297-.274.02-.274.02-.52 0v-.2l-.215-.035c-.23-.062-.23-.062-.378-.261-.079-1.145.035-2.332.187-3.461.063-.528.086-1.059.11-1.59h-.52q.011-.127.016-.254.034-.57.058-1.133c.008-.183.008-.183.02-.367.02-.785-.035-1.367-.391-2.012a3.7 3.7 0 0 0-.52-.593q-.099-.099-.199-.204c-.277-.218-.425-.242-.746-.246q-.07-.005-.144-.004-.235-.005-.47-.004l-.327-.003a63 63 0 0 0-.86-.008q-.515-.005-1.03-.016l-1.563-.012v-5.449c-1.422.035-2.84.067-4.305.102-.02 1.722-.02 1.722-.043 3.445q-.001.322-.008.645.001.168-.004.343-.002.16-.004.325-.002.135-.004.28c-.011.212-.011.212-.085.31q-.171.01-.348.011c-.07 0-.14-.004-.211-.004h-.449c-.184-.004-.367-.004-.551-.008q-.013-1.4-.02-2.808 0-.653-.007-1.305-.007-.626-.008-1.258.001-.24-.004-.48v-.672q-.005-.187-.004-.387c.043-.32.043-.32.223-.562.191-.156.191-.156.34-.156.074-.293.085-.5.09-.81q.003-.15.007-.304l.012-.633q-.001-.146.004-.304.005-.134.004-.274a1.23 1.23 0 0 1 .254-.648c.168-.04.168-.04.347-.024l.184.012.137.012q.002-.083.003-.172c.028-.602.106-.906.442-1.312h.297c0-.153 0-.153-.004-.305-.008-.371-.008-.742-.012-1.113q-.001-.24-.008-.48c0-.231-.004-.466-.004-.696-.004-.07-.004-.145-.004-.215 0-.348.012-.527.172-.805.254-.246.442-.18.75-.152v-.172c.016-.45.047-.738.29-1.066.355-.434.601-.344 1.12-.344v-6.738l-2.054.105-1.29.07-2.046.106-1.488.082-.79.039-.882.047-.258.015q-.24.013-.477.02-.195.011-.39.027c-.528.035-.742-.14-1.305-.414V5.65c.586-.336.586-.336.89-.297q.006-.093.005-.184c.035-.64.035-.64.191-.953.691-.606 1.664-.461 2.45-.39m0 0" style="stroke:none;fill-rule:nonzero;fill:#3e3e3e;fill-opacity:1"/><path d="M45.875 36.36c.34.05.55.163.832.421.266.23.523.453.805.649.05.039.105.074.16.113.187.098.355.145.555.191.39.098.73.274 1.093.489.09.054.09.054.188.109q.556.323 1.113.668a27 27 0 0 0 1.121.625 5.6 5.6 0 0 1 1.387 1.082c.23.234.465.438.71.637.43.363.794.789 1.161 1.258q.076.087.152.187c.891 1.117 1.414 2.574 1.848 4.07q.1-.011.2-.02.416-.044.84-.077c.073-.008.148-.012.222-.02.672-.035 1.293.168 1.93.414.066.028.132.051.199.078.824.403 1.328 1.399 1.683 2.41q.099.294.196.583c.03.093.066.183.097.28.266.75.5 1.524.742 2.294.036.105.036.105.067.21.18.598.222 1.22.066 1.837-.34.953-.867 1.718-1.441 2.43l-.168.206a10 10 0 0 1-1.219 1.266q-.21.2-.422.406-.1.1-.207.203-.165.159-.328.328c-.293.301-.586.465-.93.637-.257.149-.472.352-.699.567-.238.203-.484.308-.754.433q-.081.07-.176.145c-.515.406-1.097.625-1.671.855a9 9 0 0 0-.563.246 8.3 8.3 0 0 1-1.297.438q-.075.02-.152.043c-.965.258-1.934.293-2.914.3-.145.004-.285.008-.43.008-1.46.032-1.46.032-2.07-.547l-.18-.152c-.543-.465-.797-1.183-1.078-1.93-.043-.105-.082-.207-.125-.316q-.164-.433-.32-.871l-.102-.277c-.375-1.063-.754-2.157-.516-3.348.313-1.14.891-2.059 1.579-2.832.207-.254.382-.535.562-.824.05-.075.05-.075.106-.153h.148v-.195l-.266.016c-1.136.054-1.136.054-1.66-.395-.187-.144-.3-.203-.52-.215-.218.086-.421.215-.628.34-1.68.945-3.504 1.43-5.309 1.738q-.076.017-.16.028c-1.148.191-2.3.207-3.46.203q-.317-.001-.626.004c-3.14.023-7.012-.242-9.785-2.442-.535-.414-1.008-.437-1.617-.43h-.293q-.304-.001-.61.005c-.261.004-.52 0-.78 0h-1.032c-.086 0-.172.004-.262.004-.117.003-.117.003-.23.003-.262.063-.383.22-.582.446-.086.031-.172.058-.262.09-.328.14-.383.32-.555.703-.215.27-.355.336-.648.332h-.211q-.113-.005-.227-.004h-.234l-.738-.012c-.164 0-.332-.004-.5-.004q-.612-.005-1.223-.015c-.008.078-.02.156-.027.234-.067.36-.196.457-.418.656a1.04 1.04 0 0 1-.535.11q-.141-.007-.282-.008.007.134.02.273c-.02.32-.02.32-.145.535-.215.227-.328.235-.597.235h-.246c-.086 0-.168 0-.258-.004-.125.004-.125.004-.254.004h-.473c-.254-.067-.34-.18-.496-.45-.043-.34-.043-.34-.05-.71.015-.418.015-.418-.098-.774a6 6 0 0 0-.446-.02c-.097 0-.191-.003-.293-.007h-.156q-.239-.001-.484-.008a91 91 0 0 0-1.031-.016c-.399-.007-.793-.011-1.192-.02q-.236 0-.473-.007c-1.582-.023-1.582-.023-2.191-.84-.535-.86-.793-1.957-.96-3.035-.013-.074-.028-.145-.04-.223-.121-.843-.09-1.703-.078-2.562-.086 0-.176.004-.266.004-.324.004-.648.004-.972.008q-.212-.001-.422.004-.304.004-.61.003-.093-.001-.187.004c-.547 0-.992-.086-1.402-.617-.145-.578-.149-1.183.05-1.734.172-.25.313-.407.543-.543.051.031.098.062.149.097l-.035.153c-.067.426-.098.93.035 1.332.136.117.136.117.297.199l.222.2c.184.03.184.03.395.03.12.004.12.004.242.004q.128.005.262.004c.09.004.18.004.27.008.28.004.566.012.847.016.195 0 .387.008.578.008q.704.017 1.414.027c.004.062.012.121.016.187q.04.425.086.848.01.146.027.293c.14 1.434.422 3.09 1.316 4.02.512.46 1.309.312 1.895.312q.411.001.816.008.521.005 1.035.004.424.001.84.008h.32q.224-.001.446.004h.254c.219.062.219.062.394.296.149.32.149.5.13.875-.016.305-.016.305-.009.575.133.218.133.218.31.222.093 0 .093 0 .194-.004q.106.001.211-.004c.075 0 .145 0 .223-.003.074 0 .145 0 .223-.004q.273-.001.547-.008.002-.153.003-.313.005-.203.016-.406v-.203c.012-.32.031-.523.18-.781.218-.227.336-.227.613-.227h.273q.142.005.29.004h.3c.371-.004.742 0 1.114 0q.47.006.941 0 .22.001.441.008c.516.004.516.004.965-.293.149-.305.246-.625.352-.957.25-.344.472-.34.82-.344q.075-.005.156-.004c.172-.004.344-.004.516-.008h.36q.378-.005.757-.004c.32 0 .64-.007.961-.011q.373-.005.746-.004.175-.001.356-.008c.863-.02 1.406.2 2.152.777a9 9 0 0 0 .875.43c1.207.535 2.422.953 3.676 1.234l.258.059c1.421.3 2.828.39 4.261.387q.423.001.844.008c3.074.007 6.535-.508 9.309-2.422.191-.125.3-.14.511-.09.13.16.25.324.371.492.516.387.993.316 1.567.277.535-.02.535-.02.82.2.137.218.137.218.211.515q-.217.2-.433.395l-.247.222c-.21.176-.21.176-.359.176v.2c-.121.062-.242.128-.371.195v.199h-.223c-.02.062-.039.129-.058.191-.09.203-.09.203-.313.305q-.076.194-.148.395c-.078.144-.164.28-.25.421-.375.637-.707 1.313-.64 2.153.245 1.261.679 2.457 1.148 3.594l.101.261c.285.696.59 1.149 1.098 1.57q.105.089.21.18c.325.25.61.258.977.262h.168q.275.005.551.004h.188c1.664-.004 3.367-.203 4.91-1.113l.261-.082c.61-.188 1.207-.575 1.739-1.008l.375-.211c.222-.133.425-.293.636-.453.176-.13.356-.242.54-.356.64-.43 1.187-1.008 1.671-1.707.118-.148.118-.148.266-.148q.034-.146.074-.297.128-.168.262-.336c.406-.586.672-1.184.668-1.984-.09-.79-.383-1.516-.633-2.235l-.07-.207c-.098-.281-.2-.558-.297-.836-.078-.246-.078-.246-.078-.543h-.223q-.03-.15-.055-.312a3.2 3.2 0 0 0-.39-.977q-.082-.147-.168-.3c-.582-.755-1.664-.872-2.43-.887l-.222-.008c-.547-.012-1.086.043-1.633.105a8 8 0 0 0-.055-.265c-.348-1.496-.848-2.832-1.648-3.992q-.069-.106-.137-.211c-.48-.7-1.102-1.18-1.715-1.637q-.076-.069-.152-.137v-.195l-.137-.031c-.16-.07-.16-.07-.258-.207-.164-.207-.328-.301-.535-.426-.125-.078-.125-.078-.258-.153-.398-.238-.797-.46-1.203-.68-.277-.156-.55-.316-.82-.5a2.6 2.6 0 0 0-.672-.343 1.5 1.5 0 0 1-.57-.336 4 4 0 0 0-.352-.086c-.36-.09-.598-.25-.91-.508-.086-.047-.086-.047-.18-.093a2.5 2.5 0 0 1-.516-.403 2 2 0 0 0-.859-.496zM25.742 3.824c.137.016.137.016.274.028q.293.021.582.05.463.043.925.078l1.461.13q1.306.117 2.618.23l.914.082q.353.032.707.062c.125.008.125.008.25.024.914.16.914.16 1.746-.192.476-.476 1.027-.414 1.605-.351.336.12.637.258.887.594.16.02.16.02.344 0l.215-.012c.078-.008.152-.012.234-.016.078-.008.16-.011.242-.02.25-.015.496-.034.746-.054q.11-.005.227-.016c.504-.035 1.011-.078 1.52-.117q.24-.02.48-.043.499-.035.992-.078l1.266-.105q.494-.037.988-.078c.152-.012.308-.028.465-.04q.325-.024.652-.054.099-.005.203-.016.668-.053 1.332-.129c.27-.023.512.008.778.059l.273.047c.324.097.535.261.766.57.086.477.086.95.086 1.434v.234q.004.253.003.5v.758c.004.16.004.324.004.484v.227c0 .52-.011 1.09-.28 1.492-.34.23-.692.422-1.075.422v.691c-.66.418-1.254.434-1.969.383q-.17-.013-.34-.02a45 45 0 0 1-.726-.042 54 54 0 0 0-1.14-.06l-1.755-.081-1.203-.059a56 56 0 0 0-.789-.039c-.125-.008-.25-.011-.375-.02q-.253-.01-.512-.027l-.293-.011c-.246-.024-.246-.024-.543-.121v6.738h1.485c.617.492.617.492.742.988.008.14.008.281.008.426v.8200000000000001q.001.451-.004.903v.613c0 .5-.004 1-.004 1.5a4 4 0 0 1 .215-.016c.14-.004.14-.004.281-.012l.281-.011c.305.043.414.148.633.433.277.532.25 1.051.234 1.672v.293l-.011.711c.047.027.09.059.136.086.278.195.434.41.532.805.008.168.011.34.015.508 0 .105.004.21.004.316l.012 1.43q-.001.374.004.754c.008.359.008.722.012 1.086q.002.164.003.335c0 .774-.132 1.301-.496 1.91h-.074v-.234c0-.742 0-1.484-.008-2.222v-1.145c0-.367-.004-.734-.004-1.102q-.004-.21-.003-.421c.003-.41 0-.809-.06-1.215-.202-.281-.202-.281-.444-.395-.164-.324-.168-.437-.176-.816a8 8 0 0 1-.008-.305l-.008-.316-.011-.625c-.004-.09-.004-.184-.008-.278-.004-.25-.004-.25-.086-.535l-.27.012q-.17.001-.347.008-.089.001-.176.008h-.172l-.156.007c-.188-.046-.246-.132-.364-.332-.027-.21-.027-.21-.03-.457v-.5820000000000001c-.005-.156-.005-.156-.005-.312-.004-.328-.004-.656-.008-.985 0-.324 0-.656-.004-.984q-.004-.303-.003-.613c0-.137 0-.137-.004-.278v-.246c-.008-.222-.008-.222-.168-.398-.66-.031-1.32-.063-2.004-.098V8.816c.586.028 1.168.059 1.77.09q.93.044 1.863.086.52.028 1.043.051l1.453.07q.275.014.55.028a74 74 0 0 0 2.797.09q.116.004.23.003h.216c.062 0 .12.004.187.004.27-.031.535-.136.797-.222V4.758c-.656-.137-1.195-.223-1.84-.172-.082.004-.16.012-.242.016q-.37.024-.734.054-.223.016-.446.032c-.441.03-.879.07-1.32.105-.16.012-.324.023-.484.039-.418.035-.836.066-1.254.102l-1.02.082c-.41.03-.82.066-1.23.097-.114.012-.114.012-.23.02-.852.07-1.7.14-2.551.219v-.2c-.563-.41-1.063-.609-1.704-.496-.27.121-.507.262-.695.551-.156.18-.219.176-.418.156q-.091-.007-.184-.015-.1-.01-.203-.02c-.105-.008-.105-.008-.214-.02-.239-.019-.473-.042-.711-.066a22 22 0 0 1-.504-.043l-1.086-.094q-1.305-.117-2.617-.222-.528-.048-1.055-.09-.834-.074-1.66-.137a47.392 47.392 0 0 0-1.008-.074l-.219-.016c-.57-.035-1.004.067-1.594.192v4.258c.461.168.461.168.91.218h.165q.088.001.175-.004c.098 0 .098 0 .196-.003.851-.012 1.703-.059 2.558-.102l.543-.023 1.414-.07c.758-.04 1.52-.075 2.278-.114q.39-.02.789-.04c.16-.007.324-.019.484-.026.074 0 .145-.008.219-.008l.207-.012q.088-.004.176-.008.396-.01.793-.008v9.215c-.688.032-1.371.063-2.078.098-.184.246-.168.312-.168.644 0 .094-.004.184-.004.278v.304c0 .211-.004.422-.004.63-.004.335-.004.667-.008 1q-.001.48-.008.96v.5820000000000001q-.005.123-.004.246c-.035.262-.094.348-.25.508-.14.035-.14.035-.297.028h-.172q-.088-.007-.175-.008-.087-.002-.18-.004c-.145-.004-.29-.012-.437-.016-.075.297-.083.5-.086.809 0 .148 0 .148-.004.3 0 .212-.004.419-.004.63-.012.765-.012.765-.23 1.144q-.207.2-.419.387a9 9 0 0 0-.03.777c0 .082 0 .16-.005.242 0 .27 0 .532-.004.797v.555l-.011 1.453q-.001.745-.008 1.484c-.004.973-.012 1.942-.016 2.914h-1.41q-.013-1.4-.02-2.808 0-.653-.007-1.305-.007-.626-.008-1.258.001-.24-.004-.48v-.672q-.005-.187-.004-.387c.043-.32.043-.32.223-.562.191-.156.191-.156.34-.156.074-.293.085-.5.09-.81q.003-.15.007-.304l.012-.633q-.001-.146.004-.304.005-.134.004-.274a1.23 1.23 0 0 1 .254-.648c.168-.04.168-.04.347-.024l.184.012.137.012q.002-.083.003-.172c.028-.602.106-.906.442-1.312h.297c0-.153 0-.153-.004-.305-.008-.371-.008-.742-.012-1.113q-.001-.24-.008-.48c0-.231-.004-.466-.004-.696-.004-.07-.004-.145-.004-.215 0-.348.012-.527.172-.805.254-.246.442-.18.75-.152v-.172c.016-.45.047-.738.29-1.066.355-.434.601-.344 1.12-.344v-6.738l-2.054.105-1.29.07-2.046.106-1.488.082-.79.039-.882.047-.258.015q-.24.013-.477.02-.195.011-.39.027c-.528.035-.742-.14-1.305-.414V5.65c.586-.336.586-.336.89-.297q.006-.093.005-.184c.035-.64.035-.64.191-.953.691-.606 1.664-.461 2.45-.39m0 0" style="stroke:none;fill-rule:nonzero;fill:#000;fill-opacity:1"/><path d="M47.133 49.14h5.863v5.547h7.715v2.973c-.793.738-.793.738-1.305.988-.25.141-.46.348-.687.559-.239.203-.485.309-.754.434l-.176.144c-.516.406-1.098.625-1.672.852q-.281.116-.562.25c-.785.347-1.59.504-2.41.636-.079.016-.157.036-.239.051-.48.082-.968.078-1.453.082-.125.004-.25.004-.375.008-.73.023-1.316.035-1.941-.539L48.973 61c-.52-.414-.758-1.16-1.024-1.855-.058-.157-.058-.157-.12-.317q-.166-.433-.325-.871-.048-.134-.098-.273c-.699-1.985-.699-1.985-.496-2.899.278-1 .824-1.867 1.41-2.574h.223v-.2c.125-.062.246-.128.371-.195v-.199c.16-.148.316-.277.484-.41l.137-.113q.174-.135.344-.27c-.149-.402-.149-.402-.445-.597q-.176-.002-.356.007c-.101 0-.101 0-.207.004-.144.008-.289.012-.434.02-.066.004-.136.004-.207.008l-.187.007c-.168-.046-.168-.046-.3-.23-.09-.211-.09-.211-.09-.41q-.065-.018-.133-.035c-.165-.063-.165-.063-.387-.258zm0 0" style="stroke:none;fill-rule:nonzero;fill:#434343;fill-opacity:1"/><path d="M44.164 31.672c.336.226.465.46.598.922.023.328.02.648.011.98 0 .13 0 .13-.003.262q-.001.324-.008.64.095-.01.195-.015c.703-.04.703-.04 1.012.215.191.453.18.82.086 1.304-.098.368-.188.61-.403.875.04.024.082.043.125.07.29.16.551.317.797.575.258.262.535.406.84.555.164.086.164.086.387.285q.175.052.355.094c.328.082.602.214.907.402l.351.187c.328.172.645.36.961.559.195.117.395.227.594.34.093.05.093.05.187.105q.182.1.371.2c.36.199.692.421 1.024.691v.195c.043.012.09.02.133.032.164.07.164.07.257.203.16.207.336.32.532.46.757.583 1.449 1.442 1.972 2.376v.199h-.191q-2.273.007-4.547.02-1.1.006-2.2.007c-.636 0-1.277.004-1.913.008q-.511.005-1.016.004c-.32 0-.637.004-.957.004a5 5 0 0 1-.351 0q-.236.001-.477.008h-.273c-.293.058-.45.214-.688.445-.371.101-.734.105-1.078-.121-.246-.238-.383-.38-.48-.77-.09-1.324.113-2.64.261-3.941.11-.965.215-1.918.184-2.895q-.122-.042-.25-.086c-.27-.113-.27-.113-.418-.308-.059-.656-.082-1.528.222-2.082.29-.184.575-.2.891-.2.012-.066.023-.128.031-.195.18-.968.434-2 1.063-2.605.308-.133.601-.145.906-.004m0 0" style="stroke:none;fill-rule:nonzero;fill:#4c4c4c;fill-opacity:1"/><path d="M26.93 35.05q.075-.002.152-.003c.16-.004.32-.004.484-.008h.168c.293-.004.59-.008.883-.008q.363-.001.727-.008.445-.01.883-.011.164-.001.335-.008c.977-.024.977-.024 1.325.293.195.289.218.535.226.918q-.014.32-.039.64l-.023.313a77 77 0 0 1-.102.992q-.02.18-.039.367-.06.57-.125 1.145l-.082.77c-.11 1.019-.219 2.038-.34 3.058-.058.547-.09 1.098-.12 1.648-.04.637-.106 1.102-.43 1.594-.04.059-.075.121-.118.184-.105.133-.105.133-.254.133v.199c-.093.062-.183.129-.277.191l-.156.11c-.285.168-.535.207-.844.21q-.117.005-.234.004c-.086 0-.168 0-.254.004h-.262q-.276.005-.55.004c-.282.004-.56.004-.837.012h-.535c-.082.004-.168.004-.25.008-.644-.004-1.316-.14-1.808-.742-.02-.317-.02-.317 0-.594h.148v-.2c.176-.117.29-.109.488-.113h.215c.078 0 .156-.004.235-.004q.247 0 .488-.007.387-.001.773-.008.371-.001.742-.008h.23c.548-.012.84-.156 1.274-.598.11-.21.102-.363.094-.617q-.004-.118-.008-.242l-.008-.184a.94.94 0 0 0-.64-.226h-.426q-.235-.001-.465-.008c-.246 0-.488-.004-.734-.004q-.351-.001-.707-.008c-.07 0-.145.004-.219.004-.539-.012-.937-.164-1.348-.644-.55-.891-.648-1.524-.566-2.68q.061-.625.133-1.25.04-.322.074-.645c.223-1.98.223-1.98.832-2.738l.133-.168c.547-.691.996-1.05 1.758-1.066m0 0" style="stroke:none;fill-rule:nonzero;fill:#c17d21;fill-opacity:1"/><path d="M16.707 35c.234.004.469 0 .703-.004h.453c.102-.004.102-.004.207-.004.528.012.836.242 1.242.672l.153.148c.414.41.683.985.765 1.672a9 9 0 0 1-.027.856l-.012.242q-.029.411-.05.824c-.008.09-.012.176-.02.27-.035.5-.105.953-.215 1.437q-.018.264-.023.528c-.047.836-.317 1.504-.793 2.05-.047.059-.09.118-.137.176-.574.707-1.062.746-1.82.758-.09 0-.176 0-.266.004-.285.004-.562.012-.844.016l-.574.011-1.402.024v.199h-.223q-.076.404-.136.812a4 4 0 0 0-.04.235c-.023.16-.05.324-.074.484-.12.758-.12.758-.344 1.047h-.148v.195c-.21.094-.344.114-.562.114h-.176c-.153-.012-.153-.012-.301-.114v-.195q-.146-.1-.297-.2v-.198h-.148c.039-1.274.18-2.524.32-3.782l.07-.636.14-1.254q.12-1.091.24-2.188l.034-.316c.063-.57.11-1.137.141-1.711.02-.219.02-.219.094-.414h.148q.035-.245.074-.496.112-.051.223-.102v-.195c.27-.14.543-.27.816-.399q.128-.064.262-.129c.848-.39 1.656-.445 2.547-.437m0 0" style="stroke:none;fill-rule:nonzero;fill:#c37f22;fill-opacity:1"/><path d="M35.758 35.02h.308l.809.011q.333.005.66.004.397.007.793.008c.074 0 .074 0 .152.004.137 0 .282.004.422.004.082.004.16.004.243.004.199.015.199.015.421.113v.2l.172.089c.2.11.2.11.422.309v.199h.149c.304.508.386 1.164.359 1.8q-.052.533-.117 1.06-.046.379-.086.765c-.024.183-.024.183-.043.375a28 28 0 0 0-.129 1.726c-.043.68-.207 1.133-.543 1.641q-.069.1-.137.207c-.12.152-.12.152-.27.152-.015.055-.027.114-.046.172a1.3 1.3 0 0 1-.68.68c-.207.05-.398.055-.61.059q-.134.003-.269.007l-1.234.012-.649.012c-.265.008-.527.008-.789.008l-.441.011c-.719-.004-1.102-.242-1.617-.886-.063-.102-.063-.102-.121-.2l-.13-.199c-.089-.172-.089-.172-.089-.37h-.148c-.051-1.286.09-2.497.257-3.763q.053-.417.102-.836l.031-.246q.026-.227.05-.449c.048-.371.099-.71.227-1.047.075-.066.149-.129.223-.199q.054-.124.11-.254c.113-.238.113-.238.335-.34q.034-.145.075-.297c.554-.57 1.156-.562 1.828-.546m0 0" style="stroke:none;fill-rule:nonzero;fill:#c48023;fill-opacity:1"/><path d="M4.945 32.664c.102-.004.102-.004.207-.004.223 0 .446-.004.672-.004h.469q.49-.005.98-.004.629 0 1.258-.011H9.5c.152 0 .309-.004.46-.004q.329-.005.65-.004c.066 0 .128 0 .195-.004.304.004.511.035.758.289.183.27.183.27.23.66-.023.414-.145.68-.344.996-.219.149-.441.117-.68.117h-.167c-.118 0-.239.004-.356.004-.191 0-.379.004-.566.004-.54.008-1.075.012-1.614.016q-.491 0-.988.012h-.375c-.176 0-.348.003-.527.007-.051 0-.102-.004-.153-.004-.418.012-.855.118-1.164.516-.203.48-.289.856-.308 1.41h.148c.02.059.035.117.055.18.11.258.2.36.39.516.211.043.211.043.45.039.133 0 .133 0 .273.004h.297q.152.002.305.003c.265.004.535.004.8.008q.643 0 1.286.012H9c.09 0 .18.004.273.004h.243c.367.043.652.148.894.523l.297.32c.352.419.5.747.54 1.368.038 2.449.038 2.449-.45 3.168l-.164.195c-.063.09-.125.176-.188.27-.183.226-.183.226-.406.324-.035.148-.035.148-.074.3-.125.13-.125.13-.281.25-.051.044-.102.083-.157.126q-.074.059-.156.117-.066.053-.137.105a.78.78 0 0 1-.468.117c-.063 0-.121.004-.188.004q-.1-.005-.2-.004H6.978q-.511-.001-1.016-.003H4.652c-.336 0-.668 0-1.004-.004h-.484q-.333.001-.672-.004-.099.005-.203.004-.089-.005-.184-.004h-.16c-.14-.012-.14-.012-.363-.11q-.036-.198-.074-.398-.111-.046-.223-.098c-.023-.316-.023-.316 0-.695.16-.258.293-.441.52-.594.187-.011.367-.015.554-.02h.172q.188-.004.375-.003a30 30 0 0 1 .59-.008c.422-.008.84-.012 1.258-.02.484-.003.969-.011 1.453-.015q.291-.007.582-.008.176-.001.36-.008h.16c.3-.004.582-.039.875-.117.039-.145.039-.145.074-.297q.111-.045.222-.098c.094-.296.094-.296.149-.593h.148q-.01-.258-.027-.516-.005-.142-.016-.289c-.03-.3-.062-.516-.18-.781a1.7 1.7 0 0 0-.906-.223h-.862c-.427-.004-.852-.008-1.278-.004q-.393-.001-.785-.008-.217-.001-.438.004c-.637-.011-1.187-.125-1.656-.746a4.03 4.03 0 0 1-.598-2.41l.024-.277.023-.293c.102-1.063.399-1.68 1.008-2.367.129-.118.129-.118.277-.118v-.195c.512-.523.957-.625 1.582-.625m0 0" style="stroke:none;fill-rule:nonzero;fill:#c88626;fill-opacity:1"/><path d="M30.465 29.313h.492c.14.003.14.003.285.003h1.051q.392.005.777.004.761.002 1.528.004v5.45l1.043-.024a37 37 0 0 1 .66-.008c.347-.008.695-.012 1.043-.02q.421-.01.843-.015.16-.001.32-.008c.716-.023 1.192.102 1.727.77.149.191.25.36.371.593.032.055.06.106.09.165.555 1.207.106 3.078-.05 4.375-.036.273-.063.55-.094.828-.125 1.18-.426 2.086-1.133 2.855a5 5 0 0 1-.52.395q-.083.08-.171.16c-.235.164-.387.176-.649.18-.094.003-.18.003-.273.003h-.293q-.153.005-.301.004h-.633q-.405.001-.808.008h-.625c-.149 0-.293.004-.442.008-.82-.008-1.383-.328-1.984-1.074-.332-.477-.5-.992-.496-1.645.054-.98.152-1.949.257-2.918q.047-.411.086-.824l.059-.531.023-.25c.118-1.02.54-1.856 1.153-2.48.172-.169.293-.258.5-.348h-2.45c.149.195.294.39.446.593.254 1.36-.133 3.09-.281 4.454l-.164 1.492a11 11 0 0 0-.04.367 87 87 0 0 0-.203 2.031q-.008.107-.015.219c-.032.312-.055.629-.078.941-.07.825-.243 1.508-.641 2.149-.137.136-.137.136-.285.136v.2c-.094.062-.184.129-.277.191-.079.055-.079.055-.157.106-.285.175-.543.21-.855.214-.082 0-.16.004-.242.004-.13.004-.13.004-.262.004h-.274q-.282.005-.566.004c-.195.004-.387.004-.578.008q-.42.005-.84.004c-.086.004-.172.004-.258.008-.738-.004-1.515-.133-2.07-.84-.09-.39-.14-.617-.004-.985.16-.28.285-.472.55-.566.216-.02.427-.023.645-.016h.239q.374-.001.754.004.374.005.753.004c.157 0 .309 0 .465.004.434.004.739-.05 1.121-.328.102-.11.102-.11.094-.39-.004-.102-.012-.2-.02-.305-.23-.207-.285-.223-.55-.223h-.418c-.152-.004-.305-.004-.457-.008-.238 0-.48-.004-.719-.004q-.345-.001-.691-.008h-.215c-.559-.011-.945-.187-1.371-.671-.516-.797-.735-1.282-.696-2.356q.061-.662.145-1.324c.11-.945.11-.945.191-1.895.055-.824.301-1.582.778-2.129h.148c.035-.148.035-.148.074-.296a3.4 3.4 0 0 1 .446-.496c.05-.051.097-.102.152-.157.813-.68 1.762-.504 2.684-.476l.535.011q.65.005 1.3.028-.001-.1.004-.2l.024-2.038.012-.762.011-1.094q.005-.17.004-.348.002-.152.004-.316.005-.141.004-.281c.016-.297.035-.309.258-.325m-5.078 6.578q-.054.069-.114.144-.162.21-.32.422c-.074.094-.074.094-.148.184-.563.757-.578 2.078-.684 3.078-.012.12-.027.234-.039.355-.191 1.625-.191 1.625.223 3.11.324.535.68.933 1.203 1.039q.315.022.625.015c.113.004.113.004.23.004.242.004.48.004.723.004.238.004.484.004.723.008.152.004.3.004.453.004h.383c.183.027.304.101.46.226.036.305.043.582 0 .891-.199.352-.43.555-.742.691q-.174.019-.355.02c-.07.004-.145.004-.219.008h-.234c-.082.004-.16.008-.242.008l-1.032.023q-.375.005-.75.016-.117-.001-.234.004l-.223.003c-.062 0-.125.004-.191.004-.156.004-.156.004-.301.114v.199h-.148c-.04.281-.04.281 0 .594.574.687 1.296.738 2.03.734h.806c.277-.004.554 0 .832 0h.78c.583-.008 1.071-.102 1.56-.535v-.2q.061-.027.124-.062c.293-.23.497-.512.59-.945.086-.594.137-1.176.168-1.778.074-1.191.207-2.363.344-3.543q.065-.597.137-1.195.014-.14.03-.285c.34-1.941.34-1.941.161-3.738-.297-.407-.539-.485-.96-.512-.212-.004-.419 0-.63.004h-.34q-.35.001-.703.008c-.304.004-.601.004-.902.004q-.35-.001-.7.004-.162.002-.331.003c-.82 0-1.434.07-2.043.868m8.468-.227v.2l-.136.07c-.203.164-.266.347-.383.625-.04.043-.074.086-.113.129-.473.707-.438 2.476-.528 3.378-.011.118-.023.23-.039.352l-.031.32c-.031.278-.031.278-.07.489-.063.328-.043.668-.04 1v.226c0 .18.005.363.005.543h.148q.019.105.043.203c.223.621.656 1.145 1.144 1.383.348.059.688.055 1.04.05h.3q.316 0 .633-.003.41-.005.813-.004c.207.004.414 0 .625 0h.441c.676-.008 1.129-.102 1.637-.734v-.2c.043-.027.09-.05.133-.074.191-.144.296-.293.433-.523.043-.067.09-.137.133-.207.277-.672.289-1.489.336-2.239.035-.578.078-1.152.144-1.73l.036-.305.07-.578c.09-.805-.047-1.36-.32-2.07h-.149v-.2c-.27-.296-.27-.296-.594-.398v-.199c-.238-.102-.414-.113-.664-.117q-.134-.001-.273-.008-.151.001-.3-.004h-.153q-.397-.007-.801-.008-.327-.001-.66-.008a27 27 0 0 0-.797-.011c-.148-.004-.3-.004-.45-.012-.648.004-1.077.176-1.613.664m0 0" style="stroke:none;fill-rule:nonzero;fill:#4b4b4b;fill-opacity:1"/><path d="M48.48 4.559q.123.024.25.054.093.02.184.043c.066.27.086.426.082.703v.786q.001.426-.004.859v.582q.001.714-.004 1.43c-.488.265-.91.34-1.437.324q-.116.001-.239-.004c-1.265-.024-2.535-.094-3.8-.156-.282-.012-.563-.028-.848-.04q-1.252-.058-2.504-.124-.142-.005-.289-.016l-.7-.035-.19-.012a4 4 0 0 1-.825-.137V5.25a94 94 0 0 1 3.453-.348c.164-.011.325-.027.485-.039q.498-.041.996-.078l1.273-.105q.494-.043.989-.078.233-.02.472-.04.324-.027.653-.054a3 3 0 0 0 .191-.016c.61-.047 1.207-.074 1.812.067m0 0" style="stroke:none;fill-rule:nonzero;fill:#4a4a4a;fill-opacity:1"/><path d="M5.86 32.23h.468q.487-.001.969.004.626.001 1.246-.004c.32-.003.64 0 .96 0h.458q.32-.003.64.004c.094-.004.094-.004.188-.004.45.012.758.176 1.106.563.195.355.222.543.226.984-.059.465-.258.797-.523 1.098h-.149l-.05.172c-.165.379-.383.582-.692.719-.187.011-.367.015-.555.02q-.085 0-.172.003c-.187.004-.375.004-.562.008-.125 0-.258.004-.387.004q-.51.01-1.02.015-.521.011-1.042.016-1.026.016-2.047.031c.035.492.035.492.187.93.258.227.496.223.793.23l.2.008c.43.016.863.024 1.293.035q.396.007.8.02.295.007.594.008l.375.011h.172c.601.02 1.082.27 1.523.829.493.71.727 1.3.7 2.28-.082 1.821-.082 1.821-.407 2.485q-.042.087-.086.18c-.492.945-1.132 1.734-1.992 2-.558.094-1.125.07-1.691.066h-.488c-.344.004-.688 0-1.028 0a74 74 0 0 0-1.312 0c-.336.004-.676.004-1.012 0q-.245-.001-.484.004-.339-.001-.676-.008c-.098.004-.098.004-.2.004-.464-.011-.695-.156-1.046-.562-.192-.336-.168-.676-.149-1.09.09-.496.297-.7.594-.988.273-.121.527-.121.813-.133.058 0 .117-.004.175-.004.18-.008.364-.012.547-.02l.371-.011q.458-.016.914-.032.03-.134.063-.273c.039-.176.039-.176.082-.36l.078-.355c.074-.3.074-.3.148-.5l-.187.008q-.352.011-.7.016-.22.004-.449.015c-.652.004-1.042-.062-1.57-.593-.484-.66-.804-1.348-.804-2.297.058-1.559.23-2.782 1.101-3.895.367-.426.711-.781 1.2-.879v-.199c.804-.617 1.597-.566 2.495-.563m-2.497 1.06v.194a2 2 0 0 1-.133.086c-.515.36-.828.895-1.054 1.598a9 9 0 0 0-.117 1.086l-.024.277c-.058.91.156 1.711.594 2.418.469.621 1.02.735 1.656.746q.142-.005.29-.004.15-.001.304.004.394.005.789.004c.426-.004.848 0 1.27.004h.949c.246.027.441.098.668.223.152.34.175.68.195 1.07q.011.147.016.293c.007.074.011.145.011.223H8.63l-.055.285c-.094.308-.094.308-.25.445-.047.02-.09.04-.14.063v.195c-.344.094-.68.117-1.036.117h-.171c-.125 0-.247.004-.372.004-.195 0-.39.004-.59.004q-.835.011-1.671.016c-.34 0-.684.007-1.024.007q-.197.005-.39.004-.271.001-.547.008-.078-.005-.16-.004c-.325.008-.532.074-.79.34-.18.363-.16.566-.148.992q.112.047.223.098.036.2.074.398c.2.09.316.11.52.114q.094-.001.187.004h.41c.23.003.465.007.696.007h.238q.632.007 1.258.008.522.001 1.039.008.632.007 1.258.008c.16 0 .32.004.476.004.223.004.45.004.672.004.066 0 .129.004.195.004.602-.008 1.055-.348 1.508-.856v-.2q.062-.03.125-.066c.219-.168.371-.382.543-.625l.125-.148c.48-.734.43-2.195.418-3.11-.047-.628-.223-1.011-.574-1.425l-.266-.27-.2-.23c-.292-.285-.558-.278-.917-.281h-.57c-.106-.004-.203-.004-.305-.008q-.651-.007-1.297-.008a54 54 0 0 0-.793-.008q-.226-.005-.45-.004c-.089 0-.183 0-.273-.004H5.36c-.27-.062-.394-.191-.586-.449q-.036-.145-.074-.297h-.148c.125-1.125.125-1.125.445-1.586.379-.265.754-.34 1.18-.332h.523q.282.006.563 0 .803-.006 1.605 0 .488.001.98-.004h.376q.26.006.52 0c.054 0 .105.004.155.004.286-.004.395-.054.618-.304.218-.352.246-.575.277-1.028-.074-.351-.262-.539-.492-.715-.23-.066-.453-.066-.688-.058q-.098-.005-.203-.004c-.223-.004-.45 0-.672.004h-.465c-.328-.004-.652 0-.98 0q-.628.005-1.25.004c-.324-.004-.645 0-.965 0h-.46q-.328-.001-.65.004h-.19c-.544.007-.962.246-1.415.648m0 0" style="stroke:none;fill-rule:nonzero;fill:#686561;fill-opacity:1"/><path d="M52.996 54.688h7.715v2.972c-.793.738-.793.738-1.3.988-.259.145-.477.352-.704.57-.305.259-.605.239-.96.235h-1.02c-.309 0-.618-.004-.926-.004h-1.114c-.562-.004-1.128-.004-1.69-.008zm0 0" style="stroke:none;fill-rule:nonzero;fill:#4b4b4b;fill-opacity:1"/><path d="m22.8 31.648.223-.007c.352 0 .536.007.825.289.257.492.215.914.164 1.496-.004.074-.012.144-.016.222-.043.508-.148.805-.379 1.227.016.242.067.375.149.594a20.3 20.3 0 0 1-.328 3.343c-.168.95-.243 1.918-.325 2.883l-.07.742-.016.227c-.062.652-.18 1.305-.52 1.805q-.05.086-.109.168c-.246.297-.457.37-.785.37-.062.005-.125.005-.191.009-.215-.047-.32-.133-.477-.336v-.196c-.066-.039-.066-.039-.136-.074-.192-.152-.227-.25-.309-.52-.062-.738.043-1.484.125-2.21.012-.117.027-.23.04-.348.038-.367.081-.73.124-1.098.055-.476.106-.957.16-1.433q.023-.176.04-.352.137-1.181.19-2.375c.028-.496.118-.73.36-1.101-.035-.149-.035-.149-.074-.297-.082-2.215-.082-2.215.289-2.797.344-.262.66-.238 1.047-.23m0 0" style="stroke:none;fill-rule:nonzero;fill:#c48124;fill-opacity:1"/><path d="M44.02 32c.312.266.417.367.507.848.012.25.008.492.008.742-.004.105-.004.21-.008.316q-.004.151-.007.301c.023.324.058.45.242.668.215.059.215.059.449.055.238.004.238.004.441.043.149.297.149.297.133.507-.082.395-.183.786-.281 1.176-.074 0-.145.004-.219.004a7 7 0 0 0-.285.016 6 6 0 0 1-.281.008c-.262.039-.262.039-.414.28-.16.333-.203.575-.25.966-.016.101-.016.101-.028.203-.03.234-.054.469-.082.703l-.03.266q-.135 1.19-.263 2.378-.05.451-.101.903a7 7 0 0 1-.028.277c-.078.707-.183 1.352-.617 1.824-.265.118-.465.125-.742.098-.203-.137-.203-.137-.371-.297-.074-.066-.148-.129-.223-.2-.28-1.124.13-2.85.258-4.003.242-1.672.242-1.672.113-3.324-.136-.07-.136-.07-.296-.102-.165-.039-.165-.039-.297-.097-.114-.454-.028-.84.074-1.29.125-.261.125-.261.297-.394.277-.027.277-.027.52 0v-.2h.148l.035-.226c.168-.98.355-1.867 1.004-2.449.254-.113.34-.11.594 0m0 0" style="stroke:none;fill-rule:nonzero;fill:#c88526;fill-opacity:1"/><path d="M16.477 36.707h.265c.52.008.887.05 1.301.492.082.153.082.153.082.45h.148c.086.578.059 1.097 0 1.683h-.148l.012.266c0 .578-.086 1.144-.16 1.715q-.017.158-.04.324c-.074.578-.273.82-.625 1.164-.44.164-.91.117-1.363.12-.16 0-.316.005-.476.009h-.305c-.14.004-.14.004-.281.004-.27-.04-.407-.118-.617-.332-.446-.922-.13-2.227-.016-3.25l.035-.32c.18-1.512.18-1.512.574-1.942.516-.403 1.032-.403 1.614-.383m0 0" style="stroke:none;fill-rule:nonzero;fill:#383838;fill-opacity:1"/><path d="M36.84 36.7c.144-.009.144-.009.289-.016.562-.008.918.066 1.36.546.265.5.19 1.114.14 1.692-.004.074-.012.144-.016.219q-.022.229-.039.453c-.023.23-.039.46-.058.691-.012.149-.028.297-.04.445l-.015.208c-.055.57-.203 1.011-.496 1.437-.477.492-.88.445-1.465.45q-.224 0-.45.007h-.55c-.398-.059-.64-.336-.902-.727-.274-.726-.028-1.886.058-2.648.012-.117.024-.238.04-.355.097-.872.187-1.559.718-2.149.453-.297.934-.246 1.426-.254m0 0" style="stroke:none;fill-rule:nonzero;fill:#3f3f3f;fill-opacity:1"/><path d="M27.68 36.727h.297c.078 0 .078 0 .152.003q.235 0 .465-.003h.297c.132.003.132.003.27.003.312.032.526.106.745.407.246.586.074 1.367-.02 1.992-.042.351-.058.7-.07 1.055-.035.824-.117 1.507-.562 2.12-.266.235-.457.231-.762.231h-.164q-.166.005-.336.004c-.168 0-.34.004-.508.008h-.328c-.078.004-.078.004-.152.004-.371-.004-.578-.14-.863-.446-.403-.703-.239-1.601-.16-2.425.21-1.977.21-1.977.68-2.528.362-.328.573-.422 1.019-.425m0 0" style="stroke:none;fill-rule:nonzero;fill:#3c3c3c;fill-opacity:1"/><path d="M35.188 9.5h.578c.23 0 .46.004.691.004.512.004 1.023.004 1.55.008v5.547H34.82q-.005-1.16-.004-2.325c0-.261 0-.527-.004-.789v-1.824q-.002-.147-.003-.293c.015-.383.074-.316.379-.328m0 0" style="stroke:none;fill-rule:nonzero;fill:#4c4c4c;fill-opacity:1"/><path d="m27.34 34.633.43.012.308.011q.551.023 1.102.016.409-.001.824.004c.133 0 .27 0 .402-.004 1.203-.016 1.203-.016 1.64.48.243.34.325.59.325 1.059-.066 1.277-.219 2.543-.355 3.809l-.164 1.492a11 11 0 0 0-.04.367 87 87 0 0 0-.203 2.031q-.008.107-.015.219c-.032.312-.055.629-.078.941-.07.825-.243 1.508-.641 2.149-.137.136-.137.136-.285.136v.2c-.094.062-.184.129-.277.191-.079.055-.079.055-.157.106-.285.175-.543.21-.855.214-.082 0-.16.004-.242.004-.13.004-.13.004-.262.004h-.274q-.282.005-.566.004c-.195.004-.387.004-.578.008q-.42.005-.84.004c-.086.004-.172.004-.258.008-.738-.004-1.515-.133-2.07-.84-.09-.39-.14-.617-.004-.985.16-.28.285-.472.55-.566.216-.02.427-.023.645-.016h.239q.374-.001.754.004.374.005.753.004c.157 0 .309 0 .465.004.434.004.739-.05 1.121-.328.102-.11.102-.11.094-.39-.004-.102-.012-.2-.02-.305-.23-.207-.285-.223-.55-.223h-.418c-.152-.004-.305-.004-.457-.008-.238 0-.48-.004-.719-.004q-.345-.001-.691-.008h-.215c-.559-.011-.945-.187-1.371-.671-.516-.797-.735-1.282-.696-2.356q.061-.662.145-1.324c.11-.945.11-.945.191-1.895.055-.824.301-1.582.778-2.129h.148q.035-.145.074-.296c.653-.875 1.403-1.184 2.313-1.133m-1.953 1.258q-.054.069-.114.144-.162.21-.32.422c-.074.094-.074.094-.148.184-.563.757-.578 2.078-.684 3.078-.012.12-.027.234-.039.355-.191 1.625-.191 1.625.223 3.11.324.535.68.933 1.203 1.039q.315.022.625.015c.113.004.113.004.23.004.242.004.48.004.723.004.238.004.484.004.723.008.152.004.3.004.453.004h.383c.183.027.304.101.46.226.036.305.043.582 0 .891-.199.352-.43.555-.742.691q-.174.019-.355.02c-.07.004-.145.004-.219.008h-.234c-.082.004-.16.008-.242.008l-1.032.023q-.375.005-.75.016-.117-.001-.234.004l-.223.003c-.062 0-.125.004-.191.004-.156.004-.156.004-.301.114v.199h-.148c-.04.281-.04.281 0 .594.574.687 1.296.738 2.03.734h.806c.277-.004.554 0 .832 0h.78c.583-.008 1.071-.102 1.56-.535v-.2q.061-.027.124-.062c.293-.23.497-.512.59-.945.086-.594.137-1.176.168-1.778.074-1.191.207-2.363.344-3.543q.065-.597.137-1.195.014-.14.03-.285c.34-1.941.34-1.941.161-3.738-.297-.407-.539-.485-.96-.512-.212-.004-.419 0-.63.004h-.34q-.35.001-.703.008c-.304.004-.601.004-.902.004q-.35-.001-.7.004-.162.002-.331.003c-.82 0-1.434.07-2.043.868m0 0" style="stroke:none;fill-rule:nonzero;fill:#6a6661;fill-opacity:1"/><path d="m22.8 31.648.223-.007c.352 0 .536.007.825.289.257.492.215.914.164 1.496-.004.074-.012.144-.016.222-.043.508-.148.805-.379 1.227.016.242.067.375.149.594a20.3 20.3 0 0 1-.328 3.343c-.168.95-.243 1.918-.325 2.883l-.07.742-.016.227c-.062.652-.18 1.305-.52 1.805q-.05.086-.109.168c-.246.297-.457.37-.785.37-.062.005-.125.005-.191.009-.215-.047-.32-.133-.477-.336v-.196c-.066-.039-.066-.039-.136-.074-.192-.152-.227-.25-.309-.52-.062-.738.043-1.484.125-2.21.012-.117.027-.23.04-.348.038-.367.081-.73.124-1.098.055-.476.106-.957.16-1.433q.023-.176.04-.352.137-1.181.19-2.375c.028-.496.118-.73.36-1.101-.035-.149-.035-.149-.074-.297-.082-2.215-.082-2.215.289-2.797.344-.262.66-.238 1.047-.23m-1.335 3.82c-.043.313-.043.313-.04.673-.027 1.086-.163 2.148-.288 3.222l-.07.61c-.098.832-.196 1.66-.313 2.492-.04.3-.047.59-.04.898 0 .102 0 .2.005.305 0 .074.004.145.004.223h.148q.031.088.055.175c.117.27.183.375.39.516.317.043.59.035.891-.098.504-.675.563-1.558.652-2.453l.047-.457q.052-.475.098-.949c.039-.402.082-.8.125-1.207q.045-.464.098-.934.018-.223.043-.445c.218-1.523.218-1.523-.024-2.969q-.364-.018-.723-.023l-.207-.012q-.099.001-.199-.004c-.062 0-.125-.004-.183-.004-.243.063-.325.176-.47.442m0 0" style="stroke:none;fill-rule:nonzero;fill:#696662;fill-opacity:1"/><path d="M2.992 33.188c-.074.296-.074.296-.277.507-.715.785-.766 2.028-.863 3.176q-.05 1.178.535 2.074c.66.817 1.222.938 2.097.922q.153.005.305.004c.375.004.746 0 1.121-.004h.95q.217.001.44-.004c.747.008.747.008 1.02.301.254.402.262.625.235 1.148-.11.34-.11.34-.223.594h-.148v-.691h-.149v-.23c-.058-.301-.058-.301-.308-.446a2.37 2.37 0 0 0-1.395-.117c-.289.21-.36.336-.457.758q-.029.203-.05.406c-.028.238-.06.473-.087.719H4.477c-.118-.309-.012-.524.062-.844.031-.117.055-.23.086-.352.074-.293.074-.293.148-.492l-.187.008q-.352.011-.7.016-.22.004-.449.015c-.652.004-1.042-.062-1.57-.593-.484-.66-.804-1.348-.804-2.297.058-1.57.234-2.778 1.109-3.899.57-.68.57-.68.82-.68m0 0" style="stroke:none;fill-rule:nonzero;fill:#010101;fill-opacity:1"/><path d="M15.426 34.656c.07 0 .14-.004.215-.004.324-.004.648-.011.972-.011q.253-.001.512-.008c.246-.008.492-.008.738-.008q.116-.007.23-.008c.524 0 .864.16 1.294.551v.2q.063.037.133.073c.421.317.835 1 .98 1.61.066 1-.062 2.008-.164 2.992-.031.277-.055.555-.082.832-.234 2.313-.234 2.313-.867 3.016h-.149c-.035.144-.035.144-.074.293-.156.156-.156.156-.355.304q-.099.076-.196.153-.093.07-.191.14l-.137.106c-.191.11-.332.117-.543.113q-.112.005-.23.004-.123.001-.246-.004c-.176.004-.348.004-.524.008h-.82q-.394.001-.79.008c-.081 0-.163-.004-.25-.004-.444-.004-.444-.004-.812.293-.148.406-.183.82-.222 1.261-.075.641-.258.973-.653 1.368-.351.214-.703.199-1.078.117-.351-.23-.586-.512-.742-.992-.062-.676.043-1.38.117-2.047.012-.114.024-.223.04-.336l.116-1.074q.063-.554.125-1.106l.082-.738c.079-.711.153-1.418.227-2.133q.017-.118.027-.242c.047-.438.047-.438.09-.88.223-2.245.223-2.245.66-2.694q.146-.124.297-.243l.223-.199q.247-.075.5-.14c.383-.106.71-.22 1.059-.454.175-.117.289-.113.488-.117m-2.344 1.309v.195c-.148.098-.148.098-.297.2v.398h-.148c-.082.219-.098.383-.117.633l-.024.277-.023.312q-.141 1.595-.317 3.184l-.023.227q-.116 1.05-.23 2.093-.067.586-.126 1.164-.022.218-.047.434-.035.304-.066.61c-.02.167-.02.167-.039.343-.027.344-.031.68-.027 1.024h.148l.149.398h.148v.195c.176.118.285.114.477.114h.175c.176-.004.176-.004.387-.114v-.195l.223-.102c.23-.55.304-1.148.398-1.761.035-.242.074-.477.121-.715h.223v-.2h.148l1.532-.023c.191-.004.378-.008.57-.008q.41-.004.82-.015h.258c.703-.02 1.2-.192 1.723-.84.425-.61.738-1.277.773-2.121a4.4 4.4 0 0 1 .11-.875c.144-.723.167-1.473.21-2.215q.017-.291.04-.582c.03-.727-.141-1.266-.473-1.84a6 6 0 0 0-.742-.793q-.072-.075-.149-.152c-.32-.207-.61-.192-.957-.195q-.106-.005-.219-.004c-.234-.008-.468-.008-.699-.008h-.242c-1.309 0-2.48.148-3.668.957m0 0" style="stroke:none;fill-rule:nonzero;fill:#686562;fill-opacity:1"/><path d="M7.371 40.324c.238.098.45.223.664.395v.496h.149v.691h.148q.04-.194.074-.394c.098-.035.2-.067.297-.102q-.045.199-.098.39c-.015.075-.035.145-.05.223-.075.18-.075.18-.297.282-.031.047-.07.097-.106.148-.261.336-.64.262-.984.266h-.176c-.125 0-.25.004-.37.004-.2 0-.395.004-.595.004q-.838.011-1.68.02l-1.03.01q-.193.006-.391.005c-.184.004-.364.004-.547.008h-.164c-.27.003-.485.015-.707.226-.184.367-.176.559-.149.992.106.18.106.18.223.297v.2h7.64v.296c-.257.172-.554.117-.835.117-.11 0-.11 0-.219.004-.238 0-.473.004-.711.004h-.246c-.43.004-.86.004-1.29.008-.44 0-.886.004-1.327.012q-.509.005-1.024.004c-.16 0-.324.004-.488.004q-.344.005-.687.004l-.204.003c-.468-.007-.699-.144-1.054-.558-.192-.336-.168-.676-.149-1.09.09-.496.297-.7.594-.988.266-.121.508-.114.785-.114h1.058c.774 0 1.54.04 2.313.114-.004-.164-.004-.164-.004-.332.004-.313.02-.535.09-.828.024-.11.024-.11.051-.22.32-.788.906-.695 1.496-.6m0 0" style="stroke:none;fill-rule:nonzero;fill:#6a6763;fill-opacity:1"/><path d="M16.477 36.707h.265c.52.008.887.05 1.301.492.082.153.082.153.082.45h.148c.086.578.059 1.097 0 1.683h-.148l.012.266c0 .578-.086 1.144-.16 1.715q-.017.158-.04.324c-.074.578-.273.82-.625 1.164-.44.164-.91.117-1.363.12-.16 0-.316.005-.476.009h-.305c-.14.004-.14.004-.281.004-.27-.04-.407-.118-.617-.332-.446-.922-.13-2.227-.016-3.25l.035-.32c.18-1.512.18-1.512.574-1.942.516-.403 1.032-.403 1.614-.383m-1.688 1.04c-.152.401-.176.773-.195 1.218-.008.219-.02.437-.028.664H16.2V42.5c.711.07.711.07 1.258-.297.258-.465.336-.937.36-1.504.011-.18.011-.18.085-.277.23-1.406.23-1.406.082-2.77-.191-.328-.382-.484-.672-.601a5 5 0 0 0-.687-.024h-.184c-.644 0-1.191.075-1.652.72m0 0" style="stroke:none;fill-rule:nonzero;fill:#4c4c4c;fill-opacity:1"/><path d="M45.676 36.945c.406.024.66.313.969.625.246.223.496.356.777.489.156.082.156.082.379.28q.175.053.355.095c.328.082.602.214.907.402l.382.2c.258.136.5.276.73.495v.098h-6.081c.11-2.055.11-2.055.37-2.578.4-.098.806-.086 1.212-.106m0 0" style="stroke:none;fill-rule:nonzero;fill:#3e3e3e;fill-opacity:1"/><path d="M12.043 49.14h4.156v1.485c-.34.023-.34.023-.676.05-.21.032-.21.032-.355.16-.125.274-.113.513-.121.83-.012.6-.012.6-.129.808-.164.168-.25.172-.453.175h-.188c-.093-.003-.093-.003-.195-.003-.094 0-.094 0-.195.003h-.188c-.082-.003-.082-.003-.172-.003-.187-.047-.254-.13-.37-.336-.016-.305 0-.594.015-.899-.02-.34-.047-.46-.238-.687-.297-.082-.586-.078-.891-.098zm0 0" style="stroke:none;fill-rule:nonzero;fill:#494949;fill-opacity:1"/><path d="M35.016 34.73q.145-.003.297-.007c.105 0 .21-.004.316-.004h.324q.343-.005.688-.004c.289 0 .578-.008.87-.012q.336-.007.676-.008.16.001.32-.004c.79-.02 1.266.188 1.845.926.097.14.097.14.253.446.032.054.06.105.09.164.555 1.207.106 3.078-.05 4.375-.036.273-.063.55-.094.828-.125 1.18-.426 2.086-1.133 2.855a5 5 0 0 1-.52.395q-.083.08-.171.16c-.235.164-.387.176-.649.18-.137.003-.137.003-.273.003h-.293q-.153.005-.301.004h-.633q-.405.001-.808.008h-.625c-.149 0-.293.004-.442.008-.82-.008-1.383-.328-1.984-1.074-.332-.477-.5-.992-.496-1.645.054-.98.152-1.949.257-2.918q.047-.411.086-.824l.059-.531.023-.25c.118-1.008.532-1.844 1.137-2.469.395-.383.738-.594 1.23-.602m-1.16.934v.2l-.137.07c-.203.164-.266.347-.383.625-.04.043-.074.086-.113.129-.473.707-.438 2.476-.528 3.378l-.035.352c-.02.16-.02.16-.035.32-.031.278-.031.278-.07.489-.063.328-.043.668-.04 1v.226c0 .18.005.363.005.543h.148q.019.105.043.203c.223.621.656 1.145 1.144 1.383.348.059.688.055 1.04.05h.3q.316 0 .637-.003.405-.005.809-.004c.207.004.414 0 .625 0h.441c.676-.008 1.129-.102 1.637-.734v-.2c.043-.027.09-.05.133-.074.191-.144.296-.293.433-.523.043-.067.09-.137.133-.207.277-.672.289-1.489.336-2.239.035-.578.078-1.152.144-1.73l.036-.305.07-.578c.09-.805-.047-1.36-.32-2.07h-.149v-.2c-.27-.296-.27-.296-.594-.398v-.199c-.238-.102-.414-.113-.664-.117q-.134-.001-.273-.008-.151.001-.3-.004h-.153q-.397-.007-.801-.008-.327-.001-.66-.008a27 27 0 0 0-.797-.011c-.148-.004-.3-.004-.45-.012-.648.004-1.077.176-1.613.664m0 0" style="stroke:none;fill-rule:nonzero;fill:#676561;fill-opacity:1"/><path d="M44.164 31.672c.336.226.465.46.598.922.023.328.02.648.011.98 0 .13 0 .13-.003.262q-.001.324-.008.64.095-.01.195-.015c.703-.04.703-.04 1.012.215.191.449.176.812.09 1.297-.114.465-.243.808-.555 1.078a5 5 0 0 1-.813.058q-.11.022-.226.043c-.2.356-.211.82-.254 1.25q-.011.124-.027.254a58 58 0 0 0-.086.817l-.059.558q-.124 1.144-.242 2.293-.016.142-.031.29l-.047.5c-.04.382-.098.718-.219 1.07h-.148c-.028.09-.028.09-.051.183-.13.281-.25.363-.469.512-.371.09-.734.101-1.078-.121-.246-.238-.383-.383-.48-.77-.09-1.324.113-2.64.261-3.941.11-.965.215-1.918.184-2.895q-.122-.042-.25-.086c-.27-.113-.27-.113-.418-.308-.059-.656-.082-1.528.222-2.082.29-.184.575-.2.891-.2.012-.066.023-.128.031-.195.18-.968.434-2 1.063-2.605.308-.133.601-.145.906-.004m-1.121.687c-.395.668-.52 1.5-.656 2.317h-.149v.199a5 5 0 0 0-.242-.027c-.27-.004-.27-.004-.45.16-.183.387-.245.8-.273 1.254q.038.145.075.297a.8.8 0 0 0 .297.097c.164.035.164.035.296.102.207.824.059 1.793-.039 2.637l-.035.316c-.039.332-.074.66-.113.988q-.051.499-.11.992l-.07.618c-.11.894-.11.894-.004 1.777.367.441.621.531 1.114.496.203-.039.203-.039.37-.2.223-.46.34-.835.41-1.386q.012-.099.028-.203l.082-.688q.013-.127.031-.261.134-1.162.262-2.328c.031-.293.067-.586.098-.883l.031-.27c.066-.59.14-1.172.469-1.605q.263-.045.527-.067.142-.006.29-.02c.073-.003.144-.01.222-.015.277-.765.277-.765.223-1.586-.164-.215-.536-.129-.754-.14-.211-.055-.211-.055-.352-.207-.14-.418-.09-.86-.074-1.309.012-.457-.008-.742-.23-1.117-.5-.512-.778-.442-1.274.062m0 0" style="stroke:none;fill-rule:nonzero;fill:#686663;fill-opacity:1"/><path d="M25.559 4.496a5 5 0 0 1 .246.016 32 32 0 0 1 1.742.144v.102c-.063 0-.129.004-.195.004l-.72.031-.312.012q-.223.006-.445.02l-.27.01c-.203-.01-.203-.01-.28.118q-.017.205-.016.402-.002.129-.004.258c-.004.14-.004.14-.004.282q-.005.139-.004.285-.011.454-.016.91c-.004.203-.008.41-.008.613-.007.504-.02 1.008-.023 1.512-.207.07-.395.117-.61.125-.05 0-.1.004-.156.004-.297-.047-.582-.203-.867-.328V4.758c.645-.348 1.254-.309 1.942-.262m0 0" style="stroke:none;fill-rule:nonzero;fill:#484848;fill-opacity:1"/><path d="M41.719 49.14h4.968c-.074.297-.074.297-.292.454a6 6 0 0 1-.293.172q-.083.041-.164.09c-.918.511-1.856.886-2.825 1.203l-.238.078c-.113.035-.113.035-.227.074q-.098.029-.203.062c-.207.047-.207.047-.726.047zm0 0" style="stroke:none;fill-rule:nonzero;fill:#494949;fill-opacity:1"/><path d="m21.613 32.2-.035.343c-.062.71-.043 1.422-.039 2.133 0 .441-.035.465-.223.793-.043.207-.043.207-.05.43a6 6 0 0 0-.02.273l-.023.305q-.106 1.394-.258 2.78l-.035.325c-.047.441-.098.875-.145 1.313l-.105.937q-.013.136-.032.277c-.125 1.043-.125 1.043.012 2.059.246.387.524.707.88.91-.114.152-.224.121-.384.129-.347-.004-.539-.117-.804-.426-.332-.734-.114-1.812-.047-2.62q.016-.182.03-.368c.048-.55.09-1.098.145-1.645l.024-.25q.019-.229.043-.453.022-.253.027-.511c-.047-.067-.097-.13-.148-.2-.024-.398 0-.8.015-1.203 0-.113.004-.222.008-.34.028-.918.028-.918.168-1.308.13-.383.125-.653.11-1.07-.032-1.926-.032-1.926.316-2.446.215-.183.32-.215.57-.168m0 0" style="stroke:none;fill-rule:nonzero;fill:#020202;fill-opacity:1"/><path d="M60.637 48.148c.148.297.148.297.074.993h-4.156v-1.489c1.273-.425 2.925-.41 4.082.496m0 0" style="stroke:none;fill-rule:nonzero;fill:#4d4d4d;fill-opacity:1"/><path d="M27.031 49.14h4.004v2.079c-.75-.11-.75-.11-1.12-.242q-.12-.044-.243-.086c-.082-.032-.164-.059-.25-.09-.129-.051-.129-.051-.258-.098-1.719-.64-1.719-.64-2.133-1.465zm0 0" style="stroke:none;fill-rule:nonzero;fill:#474747;fill-opacity:1"/><path d="M36.84 36.7c.144-.009.144-.009.289-.016.562-.008.918.066 1.36.546.265.5.19 1.114.14 1.692-.004.074-.012.144-.016.219q-.022.229-.039.453c-.023.23-.039.46-.058.691-.012.149-.028.297-.04.445l-.015.208c-.055.57-.203 1.011-.496 1.437-.477.492-.88.445-1.465.45q-.224 0-.45.007h-.55c-.398-.059-.64-.336-.902-.727-.274-.726-.028-1.886.058-2.648.012-.117.024-.238.04-.355.097-.872.187-1.559.718-2.149.453-.297.934-.246 1.426-.254m-1.59.968c-.164.34-.207.617-.254 1.012-.012.105-.012.105-.027.21q-.04.318-.074.641c-.016.125-.032.25-.047.383q-.06.499-.102 1.004l-.023.238c-.02.38.023.602.195.895.395.5.895.375 1.414.375q.136.007.277.008h.266c.082 0 .16.004.242.004.38-.06.656-.336.89-.731.083-.312.083-.312.122-.668.016-.098.016-.098.027-.195.098-.73.168-1.469.223-2.207l.023-.282c.02-.406-.004-.578-.195-.906-.422-.422-.906-.32-1.414-.324-.137 0-.137 0-.277-.004q-.13.001-.266-.004h-.242c-.336.051-.528.238-.758.551m0 0" style="stroke:none;fill-rule:nonzero;fill:#6d6964;fill-opacity:1"/><path d="M22.39 31.969q.095.005.188.004.1.004.2.007.099.005.199.004.246.005.492.016v.2c.074.03.148.066.222.097.02 1.797.02 1.797-.183 2.195-.285.278-.551.235-.899.227h-.191c-.469-.004-.469-.004-.637-.176-.156-.277-.12-.55-.117-.89v-.387c.027-.426.066-.79.27-1.133.16-.172.25-.168.457-.164m0 0" style="stroke:none;fill-rule:nonzero;fill:#ca892a;fill-opacity:1"/><path d="M16.477 36.707h.265c.52.008.887.05 1.301.492.082.153.082.153.082.45h.148c.086.578.059 1.097 0 1.683h-.148l.012.266c0 .578-.086 1.144-.16 1.715q-.017.158-.04.324c-.074.578-.273.82-.625 1.164-.44.164-.91.117-1.363.12-.16 0-.316.005-.476.009h-.305c-.14.004-.14.004-.281.004-.27-.04-.407-.118-.617-.332-.446-.922-.13-2.227-.016-3.25l.035-.32c.18-1.512.18-1.512.574-1.942.516-.403 1.032-.403 1.614-.383m-1.688 1.04c-.21.577-.242 1.214-.309 1.843-.011.125-.023.242-.039.367-.187 1.227-.187 1.227.02 2.375.246.23.41.219.71.219h.157c.11 0 .215 0 .324-.004.164-.004.328 0 .493 0 .687.004.687.004 1.312-.344.27-.433.336-.957.36-1.504.011-.18.011-.18.085-.277.23-1.406.23-1.406.082-2.77-.191-.328-.382-.484-.672-.601a5 5 0 0 0-.687-.024h-.184c-.644 0-1.191.075-1.652.72m0 0" style="stroke:none;fill-rule:nonzero;fill:#6c6963;fill-opacity:1"/><path d="M27.68 36.727h.297c.078 0 .078 0 .152.003q.235 0 .465-.003h.297c.132.003.132.003.27.003.312.032.526.106.745.407.246.586.074 1.367-.02 1.992-.042.351-.058.7-.07 1.055-.035.824-.117 1.507-.562 2.12-.266.235-.457.231-.762.231h-.164q-.166.005-.336.004c-.168 0-.34.004-.508.008h-.328c-.078.004-.078.004-.152.004-.371-.004-.578-.14-.863-.446-.403-.703-.239-1.601-.16-2.425.21-1.977.21-1.977.68-2.528.362-.328.573-.422 1.019-.425m-.723.625v.195c-.047.027-.094.05-.14.078-.27.207-.352.535-.454.914-.062.344-.097.684-.133 1.035q-.01.13-.027.266c-.09.836-.09.836-.062 1.672.187.324.3.465.593.593.305.024.61.024.914.024q.225.001.45.008h.289q.128.005.261.004c.262-.04.399-.125.606-.332.332-.75.34-1.891.422-2.743q.03-.3.066-.605c.059-.59.059-.59-.101-1.129-.371-.41-.797-.3-1.258-.305-.086 0-.176-.004-.266-.004-.617-.007-.617-.007-1.16.329m0 0" style="stroke:none;fill-rule:nonzero;fill:#6c6762;fill-opacity:1"/><path d="M6.246 34.938h.172l.555.003c.129 0 .257.004.386.004.34 0 .676.004 1.016.008q.522.005 1.04.004 1.02.005 2.034.016c-.386.68-.386.68-.742.793a5 5 0 0 1-.559.02H9.063c-.333-.005-.665-.005-.997-.009-.336 0-.671-.004-1.011-.004-.66 0-1.325-.003-1.985-.007.067-.34.121-.473.344-.672.285-.137.531-.16.832-.157m0 0" style="stroke:none;fill-rule:nonzero;fill:#040404;fill-opacity:1"/><path d="M14.09 34.656q.095.001.195-.004h.36c.144.024.144.024.293.223-.34.227-.649.332-1.028.418-.508.145-.926.332-1.273.867-.14.422-.223.84-.297 1.29-.324.007-.645.007-.969.01q-.14.006-.277.005c-.09.004-.176.004-.27.004h-.246c-.242-.02-.242-.02-.488-.117-.328-.122-.633-.137-.973-.141-.066-.004-.129-.004-.195-.008-.207-.004-.414-.012-.621-.016l-.422-.011-1.027-.024c.195-.289.34-.39.636-.41h.235c.132 0 .132 0 .27-.004h.288q.223-.005.446-.004.554-.01 1.109-.011c.207 0 .41-.004.617-.004q.292-.005.586-.004l.27-.008h.234c.254-.062.328-.195.5-.445q.13-.063.266-.133c.328-.215.347-.41.476-.86.406-.62.723-.613 1.305-.613m0 0" style="stroke:none;fill-rule:nonzero;fill:#010101;fill-opacity:1"/><path d="m41.05 35.766.013.207c.003.093.011.183.015.273.004.094.012.18.016.274.015.253.015.253.18.433q.256.105.519.2c.012.675-.02 1.32-.098 1.988l-.058.566q-.052.438-.098.875c-.312 1.95-.312 1.95-.043 3.8.266.278.48.446.816.497-.078.148-.078.148-.222.297-.274.02-.274.02-.52 0v-.2c-.105-.015-.105-.015-.215-.035-.23-.062-.23-.062-.378-.261-.079-1.145.035-2.332.187-3.461.063-.528.086-1.059.11-1.59h-.52l.016-.254c.101-1.469.101-1.469.007-2.93-.023-.285-.023-.285.078-.527.122-.152.122-.152.196-.152m0 0" style="stroke:none;fill-rule:nonzero;fill:#292929;fill-opacity:1"/><path d="M7.371 40.324c.238.098.45.223.664.395v.496h.149v.793c-.493.367-.961.332-1.516.316-.09-.004-.18-.004-.27-.008-.222 0-.441-.007-.66-.011-.008-.41-.008-.77.086-1.16q.026-.106.051-.22c.32-.788.906-.695 1.496-.6m0 0" style="stroke:none;fill-rule:nonzero;fill:#3f3f3f;fill-opacity:1"/><path d="M32.734 17.996q.128.005.262.004c.094.004.184.004.281.004q.147.004.293.008.152.005.297.004.368.005.73.015v1.785h-2.3v-1.488c.223-.297.223-.297.437-.332m0 0" style="stroke:none;fill-rule:nonzero;fill:#4b4b4b;fill-opacity:1"/><path d="M60.71 54.688h2.005c-.305.816-.664 1.43-1.188 2.011-.199.227-.379.477-.562.735-.106.125-.106.125-.254.125zm0 0" style="stroke:none;fill-rule:nonzero;fill:#373737;fill-opacity:1"/><path d="M10.41 37.45h1.559c-.149 1.75-.149 1.75-.262 2.527a17 17 0 0 0-.14 2.109c-.016.496-.075.91-.204 1.375-.082.305-.144.613-.21.922H9.964c.215-.348.406-.649.672-.926.652-.781.761-1.906.84-3.016.027-.953-.051-1.558-.547-2.3a8 8 0 0 0-.52-.594zm0 0" style="stroke:none;fill-rule:nonzero;fill:#434343;fill-opacity:1"/><path d="M40.68 39.332q.036.145.074.297h.445a23 23 0 0 1-.21 2.422c-.106.773-.173 1.55-.235 2.332H39.27l.37-.492q.141-.218.27-.434c.043-.074.086-.14.13-.215.26-.527.37-1.027.429-1.656q.012-.098.02-.195l.058-.618q.02-.21.039-.421zm0 0" style="stroke:none;fill-rule:nonzero;fill:#4a4a4a;fill-opacity:1"/><path d="m36.766 37.121.273-.008c.512-.008.86.008 1.266.434.23.61.043 1.578-.024 2.23l-.023.293c-.149 1.516-.149 1.516-.524 1.992q-.082.07-.172.141.013-.094.02-.195c.031-.297.059-.598.09-.895.008-.101.02-.203.027-.308l.063-.602.047-.508c.039-.379.062-.754.066-1.136 0-.094.004-.184.004-.278-.004-.265-.004-.265-.168-.535-.457-.25-.914-.223-1.402-.21-.121 0-.121 0-.243.003q-.288.001-.578.008.034-.145.075-.297c.386-.172.796-.125 1.203-.129m0 0" style="stroke:none;fill-rule:nonzero;fill:#171717;fill-opacity:1"/><path d="M23.84 46.762h.297q.034.134.074.273c.262.567.68.715 1.152.871.36.086.723.078 1.086.086.082 0 .168.004.254.004q.405.011.809.016l.55.011q.67.017 1.34.028-.034.145-.074.297a4 4 0 0 1-.867.117c-.082 0-.164.004-.25.004l-1.11.011c-.199 0-.39.004-.59.008q-.42.007-.843.008l-.266.008c-.675-.004-.675-.004-.941-.3l-.176-.255c-.07-.035-.14-.066-.21-.105l-.16-.09c-.052-.207-.052-.207-.075-.399-.05-.03-.098-.066-.149-.097q.072-.245.149-.496m0 0" style="stroke:none;fill-rule:nonzero;fill:#1a1a1a;fill-opacity:1"/><path d="M11.598 43.293h.074c.027.75-.043 1.441-.145 2.176-.125.945-.125.945.004 1.87.317.493.625.661 1.106.712q-.035.145-.075.297c-.304.18-.562.218-.89.195-.035-.145-.035-.145-.074-.297-.223-.168-.223-.168-.446-.297v-.492h-.222c.027-1.059.101-2.043.297-3.074h.148c.016-.184.016-.184.027-.375.024-.328.051-.426.196-.715m0 0" style="stroke:none;fill-rule:nonzero;fill:#1b1b1b;fill-opacity:1"/><path d="M20.648 38.934q.146.05.297.101l-.058.703q-.013.117-.02.227-.059.661-.129 1.316l-.031.285-.059.555c-.125 1.035-.125 1.035.012 2.047.246.387.524.707.88.91-.114.152-.224.121-.384.129-.347-.004-.539-.117-.804-.426-.329-.73-.118-1.816-.051-2.62q.016-.182.031-.368c.078-.961.184-1.91.316-2.86m0 0" style="stroke:none;fill-rule:nonzero;fill:#1a1a1a;fill-opacity:1"/><path d="M23.32 39.035h.297q-.017.256-.027.512c-.004.098-.012.191-.016.289-.027.332-.062.652-.105.98-.086.735-.106 1.465-.121 2.211q-.004.2-.008.399-.013.48-.02.957h-.742c.043-.133.09-.27.133-.406.25-.926.312-1.91.406-2.883l.059-.598q.074-.73.144-1.46m0 0" style="stroke:none;fill-rule:nonzero;fill:#4b4b4b;fill-opacity:1"/><path d="M41.496 38.836h.149c.02.766-.06 1.488-.149 2.242-.266 1.695-.266 1.695 0 3.305.266.277.48.445.816.496-.078.148-.078.148-.222.297-.274.02-.274.02-.52 0v-.2c-.105-.015-.105-.015-.215-.035-.23-.062-.23-.062-.378-.261-.082-1.246.05-2.54.222-3.762h.149c0-.094-.004-.188-.004-.281-.016-1.215-.016-1.215.152-1.801m0 0" style="stroke:none;fill-rule:nonzero;fill:#1c1c1c;fill-opacity:1"/><path d="M32.668 37.152h.074a42 42 0 0 1-.265 3.157c-.016.156-.036.312-.051.468l-.13 1.13h-.148c-.07.472-.078.91-.074 1.386l-.222.102c-.008-.899.011-1.782.074-2.676h.148c.004-.082.004-.168.008-.25.102-2.403.102-2.403.586-3.317m0 0" style="stroke:none;fill-rule:nonzero;fill:#1b1b1b;fill-opacity:1"/><path d="M26.09 44.457h2.422c.148.027.148.027.37.223.032.32.048.511-.097.78-.125.114-.125.114-.348.114-.035-.246-.035-.246-.074-.496-.39-.219-.734-.226-1.152-.219h-.203q-.318.001-.637.008h-.433l-1.06.012v-.2c.407-.226.778-.226 1.212-.222m0 0" style="stroke:none;fill-rule:nonzero;fill:#181818;fill-opacity:1"/><path d="M7.05 39.89c.087-.007.177-.007.266-.011.727-.012.727-.012 1 .285.258.398.266.621.239 1.148-.11.34-.11.34-.223.594h-.148v-.691h-.149v-.23c-.058-.301-.058-.301-.308-.446-.446-.187-.934-.195-1.395-.117-.215.137-.215.137-.371.297.098-1.028.375-.82 1.09-.828m0 0" style="stroke:none;fill-rule:nonzero;fill:#1a1a1a;fill-opacity:1"/><path d="M25.176 35.469q.071.045.148.097a2 2 0 0 0-.097.102c-.872.945-1.098 1.918-1.239 3.367h-.668c.239-1.547.63-2.363 1.559-3.37.164-.134.164-.134.297-.196m0 0" style="stroke:none;fill-rule:nonzero;fill:#010101;fill-opacity:1"/><path d="M12.191 37.45h.149a173 173 0 0 1-.387 4.206c-.02.157-.031.317-.05.473q-.01.11-.02.223a6 6 0 0 1-.137.843c-.11.047-.11.047-.223.098q.03-.621.067-1.242c.004-.117.012-.235.015-.356a9.6 9.6 0 0 1 .215-1.672c.04-.367.063-.742.082-1.113a6.3 6.3 0 0 1 .29-1.46m0 0" style="stroke:none;fill-rule:nonzero;fill:#1f1f1f;fill-opacity:1"/><path d="m34.852 44.89.28.008c.247.008.49.012.735.02q.375.013.75.02c.488.011.977.027 1.465.039-.242.328-.465.312-.793.312h-3.761c-.192-.012-.192-.012-.415-.113v-.2c.582-.101 1.153-.101 1.739-.085m0 0" style="stroke:none;fill-rule:nonzero;fill:#1b1b1b;fill-opacity:1"/><path d="M25.918 48.05h3.484q-.034.146-.074.298a3.5 3.5 0 0 1-.875.109h-.801c-.289 0-.582-.004-.875-.004-.195 0-.394-.004-.593-.004q-.728.001-1.454-.004-.036-.093-.074-.199c.422-.07.832-.105 1.262-.098zm0 0" style="stroke:none;fill-rule:nonzero;fill:#252525;fill-opacity:1"/><path d="M11.227 42.305h.148c.023.668-.05 1.324-.148 1.98-.075.098-.075.098-.34.11-.114 0-.223-.004-.332-.004h-.172c-.137-.004-.278-.004-.418-.008.21-.344.41-.656.672-.926.281-.336.425-.707.59-1.152m0 0" style="stroke:none;fill-rule:nonzero;fill:#4a4a4a;fill-opacity:1"/><path d="M29.996 29.324h.223v5.352l-.223.097zm0 0" style="stroke:none;fill-rule:nonzero;fill:#393939;fill-opacity:1"/><path d="M5.664 44.879h3.04c-.337.45-.485.457-.927.457-.09.004-.09.004-.183.004l-.969.02q-.48.01-.96.015zm0 0" style="stroke:none;fill-rule:nonzero;fill:#222;fill-opacity:1"/><path d="M38.008 38.441h.148c.164 2.254.164 2.254-.148 3.266a3 3 0 0 1-.446.496c.012-.098.012-.098.02-.195.031-.297.059-.598.09-.895.008-.101.02-.203.027-.308.043-.442.09-.887.13-1.328.085-.91.085-.91.179-1.036m0 0" style="stroke:none;fill-rule:nonzero;fill:#1c1c1c;fill-opacity:1"/><path d="M39.79 34.875h1.41c-.16.957-.16.957-.372 1.387q-.04.194-.074.394c-.024-.058-.043-.117-.066-.18-.227-.585-.446-1.003-.899-1.308zm0 0" style="stroke:none;fill-rule:nonzero;fill:#363636;fill-opacity:1"/><path d="M27.844 37.05c-.309 1.06-.309 1.06-.696 1.302a7 7 0 0 1-.39.199c-.192.086-.192.086-.395.285.032-.496.137-.8.371-1.188q.106-.05.223-.101.034-.145.074-.297c.274-.2.504-.215.813-.2m0 0" style="stroke:none;fill-rule:nonzero;fill:#010101;fill-opacity:1"/><path d="M23.617 39.035h.371l-.07.797q-.01.11-.02.227c-.011.148-.027.296-.039.445-.02.203-.035.402-.047.605-.046.301-.046.301-.269.5-.113.575-.117 1.196-.148 1.786h-.075c-.078-3.356-.078-3.356.297-4.36m0 0" style="stroke:none;fill-rule:nonzero;fill:#252525;fill-opacity:1"/><path d="M14.27 44.977c.152-.036.152-.036.343-.032h.215c.078 0 .156.004.235.004h.238l.758.012c.171 0 .343.004.511.004l1.258.012c-.074.199-.074.199-.254.312-.34.11-.652.102-1.004.082q-.104-.001-.215-.008l-.668-.023a18 18 0 0 0-.453-.02q-.556-.018-1.113-.043.072-.15.149-.3m0 0" style="stroke:none;fill-rule:nonzero;fill:#222;fill-opacity:1"/><path d="M20.426 38.734q.073.1.148.2-.029.35-.074.695v.496q-.034.048-.074.098a8 8 0 0 0-.035.437q-.013.135-.02.27-.01.139-.02.285l-.035.55-.015.247c-.024.191-.024.191-.098.293-.101.691-.168 1.37-.148 2.078h-.297c-.02-.164-.04-.324-.055-.488-.012-.09-.02-.18-.031-.278.012-.316.043-.422.148-.695.258-.715.29-1.516.36-2.297l.07-.719.047-.441c.047-.508.047-.508.129-.73m0 0" style="stroke:none;fill-rule:nonzero;fill:#464646;fill-opacity:1"/><path d="M11.969 37.45h.222l-.046.284c-.106.68-.2 1.344-.227 2.04-.023.25-.023.25-.094.546-.152.664-.133 1.383-.16 2.07-.035.704-.11 1.329-.289 1.993h-.074a14 14 0 0 1-.008-.403q-.005-.11-.004-.226c.012-.262.012-.262.086-.582.086-.43.102-.82.113-1.266.024-.836.09-1.648.184-2.476.012-.117.023-.23.039-.352.059-.558.129-1.094.258-1.629m-.371 5.745h.148q-.034.146-.074.297a11 11 0 0 0-.074-.297m0 0" style="stroke:none;fill-rule:nonzero;fill:#313131;fill-opacity:1"/><path d="M29.328 38.14h.149q-.035.346-.075.696c.188-.125.215-.246.297-.496-.05.652-.113 1.308-.18 1.957-.007.094-.019.183-.027.277-.047.438-.09.832-.238 1.235h-.149c-.015-.79.047-1.551.114-2.336.008-.13.02-.254.031-.387.027-.316.05-.629.078-.945m0 0" style="stroke:none;fill-rule:nonzero;fill:#232323;fill-opacity:1"/><path d="M3.734 44.285c.133.024.262.047.395.074.434.055.875.036 1.312.036h.32c.282 0 .563-.004.844-.004h.86c.562-.004 1.12-.004 1.683-.008a4 4 0 0 1-.074.199h-7.27c.247-.219.317-.223.602-.215.07 0 .145.004.219.004.074.004.148.004.227.008.152.004.3.004.453.008.097.004.097.004.199.004.156.015.156.015.23-.106m0 0" style="stroke:none;fill-rule:nonzero;fill:#b77726;fill-opacity:1"/><path d="M23.32 39.035h.297c-.031.61-.074 1.215-.148 1.82-.082.68-.121 1.356-.149 2.043h-.074c-.023-.23-.05-.457-.074-.695h-.074c-.043-1.078.09-2.11.222-3.168m0 0" style="stroke:none;fill-rule:nonzero;fill:#363636;fill-opacity:1"/><path d="M20.648 38.934q.146.05.297.101l-.07.793q-.007.106-.02.223-.063.727-.132 1.46h-.149c-.074.524-.148 1.048-.222 1.583h-.075c-.004-.48.016-.938.063-1.418q.01-.1.02-.2.021-.206.042-.417l.059-.633c.113-1.13.113-1.13.187-1.492m0 0" style="stroke:none;fill-rule:nonzero;fill:#222;fill-opacity:1"/><path d="M16.629 37.027h.527c.176.032.297.11.45.223v.2h-2.297a4 4 0 0 1-.075-.2 4 4 0 0 1 1.395-.223m0 0" style="stroke:none;fill-rule:nonzero;fill:#010101;fill-opacity:1"/><path d="M21.39 35.965h.075c.031.851-.047 1.672-.149 2.512q-.041.327-.078.656-.022.207-.05.414-.02.187-.043.379c-.051.297-.051.297-.2.496-.047-.031-.097-.067-.148-.098.035-.37.066-.742.101-1.11q.017-.157.028-.316l.031-.308c.008-.094.016-.184.027-.281a4 4 0 0 1 .184-.762h.148c.024-.524.051-1.047.075-1.582m0 0" style="stroke:none;fill-rule:nonzero;fill:#706c65;fill-opacity:1"/><path d="M33.336 36.16q.072.051.148.102-.073.194-.148.394h-.148c-.137.953-.266 1.91-.372 2.875h-.074c-.027-.3-.027-.3-.05-.601-.016-.2-.016-.2-.098-.39q.018-.335.054-.669l.036-.363c.101-.621.261-.98.652-1.348m0 0" style="stroke:none;fill-rule:nonzero;fill:#716b64;fill-opacity:1"/><path d="M41.2 39.629h.073c.016.723-.003 1.394-.105 2.105-.102.875-.14 1.766-.191 2.649h-.149c-.016-1.016-.004-1.973.149-2.973q.041-.314.078-.629zm0 0" style="stroke:none;fill-rule:nonzero;fill:#363636;fill-opacity:1"/><path d="M20.5 38.934h.148a997.761 997.761 0 0 0-.305 3.727q-.021.256-.042.507-.046.607-.098 1.215h-.074q-.002-.516-.004-1.031.001-.151-.004-.301v-.543c.008-.203.008-.203.082-.305.016-.144.027-.293.04-.437.003-.09.01-.176.015-.27q.012-.14.02-.281.016-.277.038-.555.005-.117.016-.246c.02-.191.02-.191.094-.289.008-.254 0-.508-.004-.758.004-.234.004-.234.078-.433m0 0" style="stroke:none;fill-rule:nonzero;fill:#343434;fill-opacity:1"/><path d="M32.297 38.34h.074c-.023.84-.059 1.652-.191 2.476-.13.832-.125 1.633-.106 2.477l-.222.102c-.008-.899.011-1.782.074-2.676h.148l.012-.27c.031-.719.086-1.406.21-2.11m0 0" style="stroke:none;fill-rule:nonzero;fill:#292929;fill-opacity:1"/><path d="M24.879 44.68c.473 0 .945-.004 1.418-.004h.48c.23-.004.465-.004.696-.004.07 0 .144-.004.218-.004h.379c.145.012.145.012.293.113v.196l-.175-.047c-.329-.063-.649-.063-.977-.063q-.098.005-.203.004-.318-.001-.637.004h-.433q-.533-.001-1.06.004zm0 0" style="stroke:none;fill-rule:nonzero;fill:#272727;fill-opacity:1"/><path d="M32.816 36.656q.034.146.075.297a3 3 0 0 1-.098.113c-.29.426-.387.918-.465 1.473q-.011.093-.027.191c-.09.66-.16 1.325-.227 1.989h-.148c.105-3.051.105-3.051.89-4.063m0 0" style="stroke:none;fill-rule:nonzero;fill:#373737;fill-opacity:1"/><path d="m33.113 44.977.266.023c.957.066 1.91.105 2.867.133q.219.005.43.015c.347.008.691.02 1.035.028v.101c-.566 0-1.133.004-1.7.004h-.788c-.301.004-.606.004-.907.004h-.789c-.191-.008-.191-.008-.414-.11zm0 0" style="stroke:none;fill-rule:nonzero;fill:#272727;fill-opacity:1"/><path d="M17.457 40.422h.371c-.117 1.406-.117 1.406-.441 1.883h-.149c.032-.649.086-1.258.219-1.883m0 0" style="stroke:none;fill-rule:nonzero;fill:#1e1e1e;fill-opacity:1"/><path d="M29.7 38.934h.148q-.006.468-.024.937-.002.128-.004.262a6.3 6.3 0 0 1-.27 1.676c-.081-.329-.066-.52-.038-.86.008-.101.011-.199.023-.3q.005-.111.016-.227h-.074c.007-.195.02-.387.027-.578q.01-.158.02-.32c.027-.294.027-.294.175-.59m0 0" style="stroke:none;fill-rule:nonzero;fill:#756d63;fill-opacity:1"/><path d="M25.918 47.457v.195c.055-.004.11-.004.164-.011 1.164-.07 2.309-.098 3.469.011v.102l-1.703.012h-.578q-.417.004-.832.007h-.508c-.07 0-.14.004-.215.004-.168-.023-.168-.023-.317-.222a1.3 1.3 0 0 1 .52-.098m0 0" style="stroke:none;fill-rule:nonzero;fill:#ad6f27;fill-opacity:1"/><path d="M37.934 38.54h.074c.008.315.008.628.012.944q0 .135.003.27c.004.531-.043.953-.164 1.46l.012.372-.012.32c-.148.168-.148.168-.297.297.012-.098.012-.098.02-.195.031-.297.059-.598.09-.895.008-.101.02-.203.027-.308.043-.442.09-.887.13-1.328.03-.317.066-.625.105-.938m0 0" style="stroke:none;fill-rule:nonzero;fill:#2d2d2d;fill-opacity:1"/><path d="M23.84 39.43h.074q-.034.645-.074 1.289l-.012.23c-.012.184-.012.184-.062.461-.153.117-.153.117-.297.2.11-1.833.11-1.833.37-2.18m0 0" style="stroke:none;fill-rule:nonzero;fill:#1b1b1b;fill-opacity:1"/><path d="M29.477 39.133h.074c-.043 1.77-.043 1.77-.297 2.574h-.074c.09-2.293.09-2.293.297-2.574m0 0" style="stroke:none;fill-rule:nonzero;fill:#1a1a1a;fill-opacity:1"/><path d="M35.785 37.152q.072.05.149.098a5 5 0 0 0 .558.04c.11.003.11.003.219.01l.43.024q.093.001.191.008c.156.02.156.02.305.117v.2c-.082-.024-.082-.024-.164-.051-.387-.07-.77-.063-1.16-.055h-.243c-.195 0-.39.004-.582.004q.034-.145.075-.297.105-.048.222-.098m0 0" style="stroke:none;fill-rule:nonzero;fill:#272727;fill-opacity:1"/><path d="M21.54 35.168c0 .273-.02.516-.048.785q-.016.135-.031.281c-.012.098-.023.192-.031.293-.02.145-.02.145-.035.297q-.036.364-.079.723-.111.05-.222.101c.015-.359.035-.714.054-1.074.008-.101.012-.199.016-.304.004-.098.012-.196.016-.297q.01-.134.015-.274c.059-.293.153-.375.344-.531m0 0" style="stroke:none;fill-rule:nonzero;fill:#60605f;fill-opacity:1"/><path d="M6.883 40.105q.082-.004.172-.003c.511 0 .511 0 .758.222v.196l-.188-.047a4 4 0 0 0-.781-.075 6 6 0 0 0-.266-.007c-.266.03-.402.12-.617.328q.034-.245.074-.496c.281-.125.55-.118.848-.118m0 0" style="stroke:none;fill-rule:nonzero;fill:#303030;fill-opacity:1"/><path d="M18.05 39.035h.075c.023.746-.043 1.445-.148 2.18h-.223v-.695a1 1 0 0 0 .074-.098q.046-.322.074-.645c.067-.632.067-.632.149-.742m0 0" style="stroke:none;fill-rule:nonzero;fill:#5e5e5d;fill-opacity:1"/><path d="M42.535 32.992c-.035.172-.066.348-.101.52-.02.097-.04.191-.059.293-.055.242-.121.449-.21.672h-.298c.285-1.485.285-1.485.668-1.485m0 0" style="stroke:none;fill-rule:nonzero;fill:#2c2c2c;fill-opacity:1"/><path d="m41.05 35.766.013.207c.003.093.011.183.015.273.004.094.012.18.016.274.015.253.015.253.18.433-.028.211-.028.211-.075.399-.242-.274-.36-.442-.445-.852 0-.34 0-.34.101-.582.122-.152.122-.152.196-.152m0 0" style="stroke:none;fill-rule:nonzero;fill:#151515;fill-opacity:1"/><path d="M11.969 37.45h.222l-.046.284a21 21 0 0 0-.25 2.29h-.075c-.078-.856-.086-1.633.075-2.477q.036-.046.074-.098m0 0" style="stroke:none;fill-rule:nonzero;fill:#2b2b2b;fill-opacity:1"/><path d="M29.18 39.43h.074c-.024.816-.047 1.636-.074 2.476q-.106.051-.223.102c-.035-.883.102-1.715.223-2.578m0 0" style="stroke:none;fill-rule:nonzero;fill:#2f2f2f;fill-opacity:1"/><path d="M20.648 38.934q.146.05.297.101-.034.195-.074.395h-.148l-.012.238c-.031.574-.07 1.098-.211 1.645h-.074c.047-.797.125-1.586.222-2.38m0 0" style="stroke:none;fill-rule:nonzero;fill:#252525;fill-opacity:1"/><path d="M11.523 44.285h.075c-.008.14-.02.281-.028.422l-.015.234c-.032.243-.09.418-.18.633q-.072-.05-.148-.101c-.036-.524.054-.778.296-1.188m0 0" style="stroke:none;fill-rule:nonzero;fill:#1a1a1a;fill-opacity:1"/><path d="M27.695 37.25h1.04v.2c-.067.007-.067.007-.133.019-.305.043-.606.09-.907.18zm0 0" style="stroke:none;fill-rule:nonzero;fill:#272727;fill-opacity:1"/><path d="M46.984 49.34c.246.05.461.105.668.293.094.262.094.262.149.496a1.7 1.7 0 0 1-.817-.594zm0 0" style="stroke:none;fill-rule:nonzero;fill:#353535;fill-opacity:1"/><path d="m12.457 48.043.18.008q-.035.145-.075.297c-.304.18-.562.218-.89.195v-.297c.086-.012.168-.027.254-.043.25-.05.3-.152.531-.16m0 0" style="stroke:none;fill-rule:nonzero;fill:#282828;fill-opacity:1"/><path d="M17.605 38.441h.149c.004.188.004.38.008.567v.324a2.75 2.75 0 0 1-.23 1.09c-.09-.438-.055-.828-.005-1.27l.024-.207c.02-.168.035-.336.054-.504m0 0" style="stroke:none;fill-rule:nonzero;fill:#232323;fill-opacity:1"/><path d="M33.93 35.566q.071.05.148.098c-.172.645-.172.645-.414.879-.09.059-.09.059-.18.113l-.148.102c.144-.668.144-.668.371-.895h.148q.034-.145.075-.297m0 0" style="stroke:none;fill-rule:nonzero;fill:#c38a35;fill-opacity:1"/><path d="M23.246 39.531h.074c.004.274.012.547.012.82q.004.117.008.239-.001.11.004.226v.207c-.032.243-.11.332-.246.489.039-.664.082-1.325.148-1.98m0 0" style="stroke:none;fill-rule:nonzero;fill:#4c4c4c;fill-opacity:1"/><path d="M20.797 39.23h.074c.027.934.027.934-.148 1.387h-.075a29 29 0 0 1-.007-.582q-.005-.159-.004-.324c.011-.281.011-.281.16-.48m0 0" style="stroke:none;fill-rule:nonzero;fill:#1c1c1c;fill-opacity:1"/><path d="M23.246 41.215h.074v1.683h-.074c-.023-.23-.05-.457-.074-.695h-.074c-.02-.656-.02-.656.148-.988m0 0" style="stroke:none;fill-rule:nonzero;fill:#404040;fill-opacity:1"/><path d="M26.438 49.14c.39.051.632.223.96.493v.199a9 9 0 0 1-.96-.492zm0 0" style="stroke:none;fill-rule:nonzero;fill:#343434;fill-opacity:1"/><path d="M17.457 40.422h.371q-.034.34-.074.691-.105.051-.223.102c-.05-.2-.101-.395-.144-.598zm0 0" style="stroke:none;fill-rule:nonzero;fill:#191919;fill-opacity:1"/><path d="M6.258 40.125q.304-.011.61-.016.087.001.175-.004c.527-.003.527-.003.77.22v.195c-.22-.051-.22-.051-.442-.098v-.2H6.258zm0 0" style="stroke:none;fill-rule:nonzero;fill:#292929;fill-opacity:1"/><path d="M11.45 41.707h.073c.016.637.012 1.184-.148 1.785a7 7 0 0 0-.148-.199 14 14 0 0 1 .136-1.031q.044-.274.086-.555m0 0" style="stroke:none;fill-rule:nonzero;fill:#3a3a3a;fill-opacity:1"/><path d="M35.563 36.953c-.114.563-.114.563-.293.719q-.076.034-.153.074c-.074.066-.148.129-.222.2.097-.415.296-.993.667-.993m0 0" style="stroke:none;fill-rule:nonzero;fill:#767067;fill-opacity:1"/><path d="M25.027 36.36c0 .39-.113.495-.297.792a5 5 0 0 0-.148.395h-.148c.097-.563.28-.809.593-1.188m0 0" style="stroke:none;fill-rule:nonzero;fill:#bd8a3e;fill-opacity:1"/><path d="M44.465 37.05h.594c-.149.25-.223.298-.461.368l-.207.031c.023-.133.047-.261.074-.398m0 0" style="stroke:none;fill-rule:nonzero;fill:#282828;fill-opacity:1"/><path d="M40.977 35.469q.036.145.074.297-.106.251-.223.496c-.05.215-.05.215-.074.394-.098-.21-.149-.343-.14-.593.085-.258.21-.407.363-.594m0 0" style="stroke:none;fill-rule:nonzero;fill:#262626;fill-opacity:1"/><path d="M25.844 35.367q.071.051.148.102c-.148.226-.293.457-.445.691-.098-.031-.195-.066-.297-.097.195-.231.39-.458.594-.696m0 0" style="stroke:none;fill-rule:nonzero;fill:#bd8c40;fill-opacity:1"/><path d="M42.473 44.918c.066.031.066.031.136.059-.293.273-.535.37-.89.398a7 7 0 0 0-.149-.2q.123-.016.246-.034c.254-.059.414-.282.657-.223m0 0" style="stroke:none;fill-rule:nonzero;fill:#303030;fill-opacity:1"/><path d="M19.535 43.293c.027.098.05.2.074.297-.101.148-.101.148-.222.3h-.149c-.023.094-.047.196-.074.294q-.105.05-.223.101c.125-.426.352-.683.594-.992m0 0" style="stroke:none;fill-rule:nonzero;fill:#5e5e5e;fill-opacity:1"/><path d="M37.934 40.719q.04.145.074.297-.035.099-.074.199c.05.031.097.066.148.097q-.072.246-.148.497h-.149l.035-.434c.004-.082.012-.16.016-.242.023-.215.023-.215.098-.414m0 0" style="stroke:none;fill-rule:nonzero;fill:#202020;fill-opacity:1"/><path d="M11.152 44.977h.075c.007.511-.012.984-.075 1.488-.047-.031-.097-.067-.148-.098a4.8 4.8 0 0 1 .148-1.39m0 0" style="stroke:none;fill-rule:nonzero;fill:#2a2a2a;fill-opacity:1"/><path d="M21.836 32.297c.09.242.074.363.05.633-.003.074-.011.152-.015.23a2.4 2.4 0 0 1-.183.625c-.016-.543-.008-.98.148-1.488m0 0" style="stroke:none;fill-rule:nonzero;fill:#aa8755;fill-opacity:1"/><path d="M41.496 38.836h.149v.793a7 7 0 0 0-.297-.098zm0 0" style="stroke:none;fill-rule:nonzero;fill:#151515;fill-opacity:1"/><path d="M34.523 38.934c.079.187.079.187.149.398a3 3 0 0 0-.074.2h-.446a3 3 0 0 1 .371-.598m0 0" style="stroke:none;fill-rule:nonzero;fill:#cb8727;fill-opacity:1"/><path d="M12.563 37.352q.033.19.074.394.071.051.148.098l-.223.793h-.074q.035-.634.075-1.285m0 0" style="stroke:none;fill-rule:nonzero;fill:#c28730;fill-opacity:1"/><path d="M14.492 35.566c-.539.352-.539.352-.89.2.316-.23.539-.352.89-.2m0 0" style="stroke:none;fill-rule:nonzero;fill:#c08d40;fill-opacity:1"/><path d="M42.684 33.387c.113.304.039.566 0 .894h-.149c-.023.13-.05.258-.074.395-.106-.278-.04-.41.027-.7q.03-.135.063-.269c.058-.223.058-.223.133-.32m0 0" style="stroke:none;fill-rule:nonzero;fill:#b18d54;fill-opacity:1"/><path d="M32.816 36.656q.034.146.075.297l-.102.117c-.14.211-.2.41-.27.676-.074-.297-.074-.297-.019-.473.234-.507.234-.507.316-.617m0 0" style="stroke:none;fill-rule:nonzero;fill:#2d2d2d;fill-opacity:1"/><path d="M42.313 44.879c-.079.148-.079.148-.223.297-.274.02-.274.02-.52 0 .075-.2.075-.2.203-.258.184-.043.356-.047.54-.04m0 0" style="stroke:none;fill-rule:nonzero;fill:#212121;fill-opacity:1"/><path d="M22.207 44.383c-.27.242-.426.215-.742.199.074-.2.074-.2.203-.266.195-.035.348.004.539.067m0 0" style="stroke:none;fill-rule:nonzero;fill:#ba7b2b;fill-opacity:1"/><path d="M17.313 41.61q.106.145.218.296c-.047.133-.093.262-.144.399h-.149q.035-.344.075-.696m0 0" style="stroke:none;fill-rule:nonzero;fill:#252525;fill-opacity:1"/><path d="M41.422 37.844c.191.383.137.554.074.992-.133-.273-.148-.387-.121-.719zm0 0" style="stroke:none;fill-rule:nonzero;fill:#222;fill-opacity:1"/></svg>