<svg xmlns="http://www.w3.org/2000/svg" viewBox="0 0 448 512"><path fill="#fff" d="m243.583 91.6027 80.112 46.7813c2.88 1.642 2.985 6.199 0 7.841l-95.192 55.629c-2.88 1.696-6.283 1.59-8.954 0l-95.192-55.629c-2.932-1.589-2.984-6.252 0-7.841l80.06-46.7813V0L0 119.417v238.835l78.3843-45.775v-93.563c-.0524-3.338 3.8223-5.722 6.7022-3.921l95.1925 55.629c2.88 1.696 4.503 4.716 4.503 7.842v111.205c.052 3.338-3.823 5.722-6.703 3.92l-80.1117-46.781-78.3843 45.775L224 512l204.417-119.417-78.384-45.775-80.112 46.781c-2.828 1.749-6.807-.529-6.703-3.92V278.464c0-3.338 1.833-6.305 4.503-7.842l95.193-55.629c2.827-1.748 6.806.477 6.702 3.921v93.563L448 358.252V119.417L243.583 0v91.6027Z"/></svg>